<?xml version="1.0" encoding="utf-8"?>
<!-- Generator: Adobe Illustrator 18.0.0, SVG Export Plug-In . SVG Version: 6.00 Build 0)  -->
<!DOCTYPE svg PUBLIC "-//W3C//DTD SVG 1.1//EN" "http://www.w3.org/Graphics/SVG/1.1/DTD/svg11.dtd">
<svg version="1.1" id="Layer_1" xmlns="http://www.w3.org/2000/svg" xmlns:xlink="http://www.w3.org/1999/xlink" x="0px" y="0px"
	 viewBox="0 0 40.7 21.7" enable-background="new 0 0 40.7 21.7" xml:space="preserve">
<text transform="matrix(0.8112 0 0 1 22.1302 12.8165)" fill="#F01344" font-family="'MyriadPro-Regular'" font-size="8.1183">Socos</text>
<ellipse fill="#F57E1D" cx="10.3" cy="3.1" rx="1.3" ry="1.5"/>
<ellipse fill="#7A767E" cx="16.1" cy="5.6" rx="1.3" ry="1.5"/>
<ellipse fill="#F8BC24" cx="11.8" cy="9.7" rx="1.8" ry="2.1"/>
<ellipse fill="#48CD52" cx="19.9" cy="11.7" rx="1.3" ry="1.5"/>
<ellipse fill="#F01344" cx="14.7" cy="14.8" rx="1.2" ry="1.4"/>
<ellipse fill="#9A66AF" cx="9.6" cy="18" rx="1.4" ry="1.6"/>
<ellipse fill="#4BB6F3" cx="4.4" cy="12.3" rx="1.3" ry="1.6"/>
<polygon fill="#7A767E" points="10.6,4.6 10.7,4.5 11.5,7.6 11.4,7.6 "/>
<polygon fill="#7A767E" points="5.7,11.9 5.7,11.8 10.1,10.3 10.1,10.4 "/>
<polygon fill="#7A767E" points="11.2,11.7 11.3,11.7 10.1,16.4 10,16.4 "/>
<polygon fill="#7A767E" points="12.8,11.5 12.9,11.4 14.1,13.6 14,13.6 "/>
<polygon fill="#7A767E" points="13.6,10.2 13.6,10.1 18.7,11.2 18.7,11.3 "/>
<polygon fill="#7A767E" points="13.3,8.4 13.2,8.3 15.1,6.5 15.2,6.6 "/>
</svg>
