<?xml version="1.0" encoding="utf-8"?>
<!-- Generator: Adobe Illustrator 18.0.0, SVG Export Plug-In . SVG Version: 6.00 Build 0)  -->
<!DOCTYPE svg PUBLIC "-//W3C//DTD SVG 1.1//EN" "http://www.w3.org/Graphics/SVG/1.1/DTD/svg11.dtd">
<svg version="1.1" id="Layer_1" xmlns="http://www.w3.org/2000/svg" xmlns:xlink="http://www.w3.org/1999/xlink" x="0px" y="0px"
	 viewBox="-6.5 27.3 36 25.2" enable-background="new -6.5 27.3 36 25.2" xml:space="preserve">
<text transform="matrix(0.6886 0 0 1 13.1606 42.4307)" fill="#9A66AF" font-family="'MyriadPro-Regular'" font-size="9.2734">Socos</text>
<ellipse fill="#F57E1D" cx="1.7" cy="31.3" rx="1.2" ry="1.7"/>
<ellipse fill="#7A767E" cx="7.3" cy="34.2" rx="1.2" ry="1.7"/>
<ellipse fill="#F8BC24" cx="3.2" cy="38.8" rx="1.8" ry="2.4"/>
<ellipse fill="#48CD52" cx="11" cy="41.1" rx="1.2" ry="1.7"/>
<ellipse fill="#F01344" cx="5.9" cy="44.7" rx="1.1" ry="1.6"/>
<ellipse fill="#9A66AF" cx="1.1" cy="48.3" rx="1.3" ry="1.9"/>
<ellipse fill="#4BB6F3" cx="-4" cy="41.8" rx="1.3" ry="1.9"/>
<polygon fill="#7A767E" points="2,33 2.1,33 2.8,36.5 2.7,36.5 "/>
<polygon fill="#7A767E" points="-2.7,41.4 -2.8,41.3 1.5,39.5 1.5,39.7 "/>
<polygon fill="#7A767E" points="2.6,41.1 2.6,41.2 1.5,46.6 1.4,46.5 "/>
<polygon fill="#7A767E" points="4.2,40.9 4.2,40.8 5.4,43.3 5.3,43.3 "/>
<polygon fill="#7A767E" points="4.9,39.4 4.9,39.3 9.9,40.6 9.9,40.7 "/>
<polygon fill="#7A767E" points="4.6,37.4 4.5,37.3 6.3,35.2 6.4,35.3 "/>
</svg>
