<?xml version="1.0" encoding="utf-8"?>
<!-- Generator: Adobe Illustrator 18.1.0, SVG Export Plug-In . SVG Version: 6.00 Build 0)  -->
<svg version="1.1" id="Layer_1" xmlns="http://www.w3.org/2000/svg" xmlns:xlink="http://www.w3.org/1999/xlink" x="0px" y="0px"
	 viewBox="0 0 792 612" enable-background="new 0 0 792 612" xml:space="preserve">
<g>
	<path fill="#060605" d="M155,86c3.2,2.3,6.7,4.4,7.2,8.9c0.8,2.3,0,4.6,0.6,6.9c-0.7,3.6-3.9,5.2-6.1,7.6c-2.7,3.1-6,5.6-8.2,9.3
		c3.5-2.7,6.4-6,9.7-8.9c1.1-0.9,2.4-3.6,4.3-0.6c0.1,4.1-0.3,8.3,0.2,12.4c-0.1,2.7-2.3,3.9-3.8,5.6c-3.5,3.9-7.7,7.1-10.5,11.6
		c3.7-2.8,6.6-6.4,10.1-9.3c1-0.8,2.4-3.7,3.9-0.3c0.1,4.1-0.3,8.3,0.2,12.4c-0.1,2.7-2.3,3.9-3.8,5.6c-3.5,3.9-7.7,7.1-10.5,11.6
		c3.7-2.8,6.6-6.4,10.1-9.3c1-0.8,2.4-3.7,3.9-0.3c0.1,4.1-0.3,8.3,0.2,12.4c0,2.5-2,3.7-3.4,5.2c-3.7,4-7.9,7.5-11,12.1
		c3.1-2.4,5.8-5.3,8.6-7.9c1.5-1.4,2.6-3.6,5.3-3c0.2,0.5,0.4,0.9,0.6,1.3c3.5,0.7,7,0.1,10.5,0.3c2.2,1.4,0.3,2.6-0.4,3.5
		c-1.9,2.3-4,4.4-6.3,6.2c-1,0.7-2.5,0.6-3.2,1.8c-0.3,0.8-0.6,1.6-1,2.3c-4.4,5.4-9.9,9.7-14.1,15.3c3.8-2.5,6.5-6.1,10-9
		c1.3-1.1,2.7-3.7,4.7-0.6c0.7,4.2,0.5,8.4,0.2,12.6c-1.5,4.1-5.3,6.3-8,9.4c-2.2,2.5-5,4.6-6.7,7.7c3.7-2.8,6.7-6.3,10.2-9.3
		c1-0.8,2.4-3.7,3.9-0.3c0.1,4.1-0.3,8.3,0.2,12.4c-0.1,2.7-2.3,3.9-3.8,5.6c-3.5,3.9-7.7,7.1-10.5,11.6c3.7-2.8,6.6-6.4,10.1-9.3
		c1-0.8,2.4-3.7,3.9-0.3c0.1,4.1-0.3,8.3,0.2,12.4c-0.1,2.8-2.5,4.1-4.1,5.9c-3.5,3.7-7.3,7-10.3,11.3c3.6-2.7,6.6-6.1,9.9-9.1
		c1.1-1,2.2-3.2,4.2-0.9c0.2,3.4-0.3,6.9,0.3,10.3c0.4,0.3,0.8,0.5,1.3,0.6c0.7,2.7-1.5,3.8-2.9,5.3c-4.3,4.5-8.9,8.8-12.8,13.7
		c6-4.8,11.2-10.5,16.7-15.8c1.6-1.6,2.9-3.7,5.7-3.6c4.2,0.9,8.5-0.5,12.7,0.8c1.9,3.2-0.5,6.5,0,9.7c-4.5,1.1-9,1.7-13.6,1.6
		c-6,0-6.2,0.2-6.4,6c0,1.3,0,2.7-0.2,4c-1.1,3.9-4.7,5.9-7.2,8.7c-2.5,2.8-5.6,5.1-7.5,8.6c3.5-2.7,6.4-6,9.7-8.9
		c1.1-0.9,2.4-3.7,4.3-0.6c0.1,4.1-0.3,8.3,0.2,12.4c-0.1,2.8-2.5,4.1-4.1,5.9c-3.5,3.7-7.3,7-10.3,11.3c3.6-2.7,6.6-6.1,9.9-9.1
		c1.2-1.1,2.7-3.6,4.7-0.6c0.7,4.2,0.5,8.4,0.2,12.6c-1.7,4.3-5.8,6.7-8.6,10c-2,2.3-4.7,4.1-6,7.2c3.5-2.8,6.5-6.2,9.9-9.1
		c1.2-1.1,2.7-3.6,4.7-0.6c0.7,4.2,0.5,8.4,0.2,12.6c-1.5,4.1-5.3,6.3-8,9.4c-2.3,2.6-5.1,4.7-6.7,7.9c3.3-2.7,6.2-5.8,9.3-8.6
		c1.4-1.3,2.5-3.4,5-2.2c2.8,3.1,6.9,0.6,10,2.3c1.7,1.8,0,3-0.9,4.1c-2.1,2.4-4.4,4.7-6.8,6.8c-0.9,0.7-1.7,1.5-2.4,2.4
		c-4.4,4.8-9.2,9.1-13.6,13.9c-0.2,0.3-0.4,0.6-0.8,2.2c4.1-3.8,7-7.1,10.3-10.1c1.2-1.1,2.7-3.7,4.7-0.6c0.7,4.2,0.5,8.4,0.2,12.6
		c-1.7,4.3-5.8,6.7-8.6,10c-2,2.3-4.7,4.1-6,7.2c3.5-2.8,6.5-6.2,9.9-9.2c1.2-1.1,2.7-3.6,4.7-0.6c0.7,4.2,0.5,8.4,0.2,12.6
		c-1.7,4.3-5.8,6.7-8.6,10c-2,2.3-4.7,4.1-6,7.2c3.5-2.8,6.5-6.2,9.9-9.1c1.2-1.1,2.7-3.6,4.7-0.6c0.7,4.2,0.5,8.4,0.2,12.6
		c-1.7,4.3-5.8,6.7-8.6,10c-2,2.3-4.7,4.1-6,7.1c3.5-2.8,6.5-6.2,9.8-9.1c1.2-1.1,2.7-3.6,4.7-0.7c0.8,3.9,0.4,7.8,0.3,11.7
		c-0.4,3.1-2.8,4.8-4.7,6.9c-3.4,3.7-7.5,6.9-10.2,11.3c5.1-4.5,9.8-9.3,14.6-14.1c1.6-1.6,3.1-3.5,5.6-4c4.9,0.1,10-1.3,14.7,1
		c1.5,3.4,1.5,6.7,0,10.1c-3.3,2.5-7.1,1-10.7,1.5c-2.7,0.1-5.3-0.3-8,0.3c-2.7,2.4-0.6,5.9-1.8,8.6c-3.9,6.3-10.3,10.3-14.4,16.4
		c3.5-2.7,6.4-6,9.7-8.9c1.2-1.1,2.7-3.7,4.7-0.6c0.7,4.2,0.5,8.4,0.2,12.6c-1.7,4.3-5.8,6.7-8.6,10c-2,2.3-4.7,4.1-6,7.2
		c3.5-2.8,6.5-6.2,9.9-9.1c1.2-1.1,2.7-3.6,4.7-0.6c0.7,4.2,0.5,8.4,0.2,12.6c-1.5,4.1-5.3,6.3-8,9.4c-2.3,2.6-5.1,4.7-6.8,7.7
		c5.9-3.9,9.5-10.4,15.9-13.8c4.2-0.5,8.4-0.6,12.6,0c3.2,1.8,0.7,3.4-0.4,4.6c-3.3,3.7-7,7-10.2,10.9c2.9-1.4,4.8-4.1,7.2-6.1
		c3.6-3.1,6.2-7.5,10.8-9.5c4.2-0.4,8.4-0.6,12.6,0.1c3.2,1.8,0.7,3.4-0.4,4.6c-3.3,3.7-7,7-10.2,10.9c2.9-1.4,4.8-4,7.1-6.1
		c3.6-3.2,6.2-7.4,10.7-9.5c3-0.2,3.5-2.2,3.6-4.8c0.2-3.9-1.1-7.9,1.3-11.5c2.2-1.3,4.6-1.1,7-1c1.2,0.2,2.4,0.4,3.4,1.2
		c2.1,5.1,0.8,10.3,0.9,15.5c-1.3,4.2-5.1,6.4-7.8,9.4c-2,2.3-4.5,4.3-6.2,6.9c4.6-2.9,7.9-7.2,11.9-10.8c1.9-1.8,3.5-4.1,6.2-4.9
		c4.2-0.4,8.4-0.6,12.6,0.1c3.2,1.8,0.7,3.4-0.4,4.6c-3.3,3.7-7.1,7-10.1,11c3.1-1.7,5.3-4.6,7.9-6.9c3.3-3,5.8-6.9,10.1-8.8
		c4.2-0.4,8.4-0.6,12.6,0.1c3.2,1.8,0.7,3.4-0.4,4.6c-3.3,3.7-7.1,7-10.1,11c3.1-1.7,5.3-4.6,7.9-6.9c3.3-3,5.8-6.9,10.1-8.8
		c4.2-0.4,8.4-0.6,12.6,0.1c3.2,1.8,0.7,3.4-0.4,4.6c-3.3,3.7-7.1,7-10.1,11c3.1-1.7,5.3-4.6,7.9-6.9c3.3-3,5.8-7,10.1-8.8
		c4.2-0.4,8.4-0.6,12.6,0.1c3.2,1.8,0.7,3.4-0.4,4.6c-3.3,3.7-7,7-11.1,11.5c2.7-0.9,3.8-2.3,4.9-3.5c5.1-5,10.1-10.1,15.2-15.1
		c1.3-1.3,2.4-3.3,4.9-2.5c1.3,1.2,0.3,3.5,2.1,4.5c1.7,0.4,3.6,0,5.2,0.9c1.7,2.4-0.6,3.6-1.8,4.9c-3.2,3.5-6.7,6.7-9.7,10.4
		c6.9-4.3,10.9-11.7,18.1-15.7c4.2-0.4,8.4-0.6,12.6,0.1c3.2,1.8,0.7,3.4-0.4,4.6c-3.3,3.7-7.1,7-10.1,11c3.1-1.7,5.3-4.6,7.9-6.9
		c3.3-3,5.8-6.9,10.1-8.8c4.2-0.4,8.4-0.6,12.6,0.1c3.2,1.8,0.7,3.4-0.4,4.6c-3.3,3.7-7.1,7-10.1,11c3.1-1.7,5.3-4.6,7.9-6.9
		c3.3-3,5.8-6.9,10.1-8.8c4.2-0.4,8.4-0.6,12.6,0.1c3.2,1.8,0.7,3.4-0.4,4.6c-3.3,3.7-7,7-10.1,10.9c6.5-4.3,10.8-11.1,17.3-15.4
		c1.7-0.8,3.9,0.1,5.4-1.4c1.3-2.9,0.4-5.9,0.7-8.8c0.2-2.1-0.3-4.3,1.2-6.2c1.5-1.1,3.3-1.2,5.2-1.2c1.8,0.2,3.7,0,5.2,1.2
		c2.2,4.1,1,8.6,1.1,12.9c0,0.5-0.1,1-0.3,1.5c-3,5.1-7.9,8.4-11.7,12.7c-1.4,1.6-3.1,2.9-4.1,4.8c4.6-2.9,7.9-7.2,11.9-10.8
		c1.9-1.8,3.5-4.1,6.2-4.9c4.2-0.4,8.4-0.6,12.6,0.1c3.2,1.8,0.7,3.4-0.4,4.6c-3.3,3.7-7.1,7-10.1,11c3.1-1.7,5.3-4.6,7.9-6.9
		c3.3-3,5.8-6.9,10.1-8.8c4.2-0.4,8.4-0.6,12.6,0.1c3.2,1.8,0.7,3.4-0.4,4.6c-3.3,3.7-7.1,7-10.1,11c3.1-1.7,5.3-4.6,7.9-6.9
		c3.3-3,5.8-6.9,10.1-8.8c4.2-0.4,8.4-0.6,12.6,0.1c3.2,1.8,0.7,3.4-0.4,4.6c-3.3,3.7-7.1,7-10.1,11c3.1-1.7,5.3-4.6,7.9-6.9
		c3.3-3,5.8-7,10.1-8.8c4.2-0.4,8.4-0.6,12.6,0.1c3.2,1.8,0.7,3.4-0.4,4.6c-3.3,3.7-7,7-11,11.4c2.6-0.8,3.6-2.2,4.8-3.4
		c5.4-5.4,10.8-10.8,16.3-16.2c1.3-1.3,2.4-3.4,4.9-2.3c1.3,1.5,0.2,3.9,1.9,5.3c1.5,0.5,3.1,0.2,4.5,1.1c1.4,2.5-0.8,3.6-2,4.9
		c-3.1,3.4-6.6,6.5-9.5,10.2c3.1-1.7,5.3-4.6,7.9-6.9c3.3-3,5.8-7,10.1-8.8c4.2-0.4,8.4-0.6,12.6,0.1c3.2,1.8,0.7,3.4-0.4,4.6
		c-3.3,3.7-7.1,7-10.1,11c4.3-3.3,8.1-7.4,12-11.1c1.8-1.7,3.1-4,5.9-4.3c4.1,0.5,8.3,0.1,12.4,0.2c3.1,0.8,1.2,2.4,0.3,3.5
		c-2.2,2.7-4.9,5-7.3,7.5c-1.2,1.3-2.8,2.3-3.4,4.3c4.5-3.4,8.2-7.7,12.3-11.6c1.7-1.6,2.9-3.7,5.6-3.9c4.1,0.5,8.3,0.1,12.4,0.2
		c3.1,0.9,1.2,2.4,0.3,3.5c-2.2,2.7-4.8,5-7.3,7.5c-1.3,1.3-2.6,2.5-3.5,4.1c6.6-4.3,10.8-11.2,17.4-15.5c2.3-0.8,4.8-0.1,7-0.8
		c0.7-0.6,1.1-1.3,1-2.2c-0.7-6.4,3.3-10.1,7.9-13.4c0.5-0.2,1-0.2,1.5,0.1c0.3,0.1,0.6,0.3,1,0.4c1.2,4.2,0.2,8.5,0.6,12.8
		c0.2,1.9-1.6,3.2-2.9,4.5c-4.5,4.6-9.2,9.1-13.5,14c4.7-2.9,8-7.3,12-10.9c1.8-1.6,3.2-4,5.9-4.3c4.2,0.5,8.4,0.1,12.5,0.2
		c3.2,0.8,1.3,2.4,0.4,3.4c-2.2,2.7-4.9,5-7.3,7.5c-1.2,1.3-2.8,2.3-3.4,4.3c4.4-3.3,8-7.4,12-11.2c1.8-1.7,3.1-4,5.9-4.3
		c4.1,0.5,8.3,0.1,12.4,0.2c3.1,0.8,1.2,2.4,0.3,3.5c-2.2,2.7-4.9,5-7.3,7.5c-1.2,1.3-2.8,2.3-3.4,4.2c4.5-3.2,8-7.4,12-11.2
		c1.8-1.7,3.1-4,5.9-4.3c4.1,0.6,8.3,0.1,12.4,0.3c3.7,1.2,0.8,2.9,0,3.8c-3.3,3.9-7.2,7.2-10.4,11.2c6.2-4.1,10.5-10.4,16.4-14.8
		c0.5-0.2,0.9-0.1,1.4,0.1c3.7,1.2,6.8,3.1,8.1,7.1c0.9,2.1,0.2,4.3,0.4,6.4c-0.1,4.9-3.2,6.9-7.5,7.7c-165.3,0-330.7,0-496,0
		c-6.3-1.7-7.2-2.8-7.5-9.6c0-140.6,0-281.2,0-421.7c0.3-6.8,1.2-8,7.5-9.7C151,86,153,86,155,86z"/>
	<path fill="#373737" d="M141.9,93.8c0,2.7,0.1,5.3,0.1,8c0,138.5,0,276.9,0,415.4c0,0.7-0.1,1.3-0.2,2c-0.3,0.2-0.6,0.1-0.9-0.2
		c0-141.7,0-283.3,0-425C141.2,93.7,141.5,93.6,141.9,93.8z"/>
	<path fill="#F2F2F2" d="M141.9,93.8c-0.3,0-0.6,0.1-0.9,0.2c0-8,0-8,8-8C145.9,88,142.4,89.5,141.9,93.8z"/>
	<path fill="#F1F1F1" d="M141,519c0.3,0.2,0.5,0.3,0.9,0.2c0.6,4.3,4,5.8,7.1,7.8C141,527,141,527,141,519z"/>
	<path fill="#F3F3F3" d="M645,527c2.9-1.7,6-3.3,7-7c0.3-0.5,0.6-0.5,1,0C653,527,653,527,645,527z"/>
	<path fill="#696969" d="M653,520c-0.3,0-0.6,0-1,0c0-2.4,0-4.7,0-7.1c0.3,0.2,0.6,0.2,0.9,0.1C653,515.3,653,517.7,653,520z"/>
	<path d="M569.8,264c2.4,0.5,4.7,1.4,7-0.1c1.1-0.5,2.4-0.9,3.1,0.2c0.6,1-0.6,1.7-1.1,2.5c-1.3,2-3,3.6-4.6,5.2
		c-14.5,14.7-29.3,28.9-43.5,43.9c-2,2-4.5,2.9-7,4.1c-5.7,1.7-10.9,5.4-17.3,4.7c-2-2.7,0.7-3.8,1.9-5.2
		c6.1-6.5,12.7-12.5,18.7-19.1c2.6-2.4,5.8-3.9,8.6-6c6.4-3.9,12-8.8,17.4-13.8c-0.5-1.1-2-0.7-2.4-1.8c3-6.5,8.8-10.5,13.9-15
		C566,262.6,568.1,263.3,569.8,264z"/>
	<path fill="#FED424" d="M580.6,355.5c0.2,0.2,0.3,0.4,0.3,0.6c-1.1,2.7-0.3,5.5-0.2,8.2c-0.4,1.7-1.7,2.8-2.9,4
		c-14.3,14.3-28.6,28.7-43,42.9c-1.4,1.4-2.7,4.9-5.8,1.9c-0.8-4.3-0.6-8.5-0.2-12.8c0.5-2,2.1-3.4,3.5-4.8
		c12.8-12.8,25.6-25.7,38.5-38.5c1.5-1.5,2.9-3.3,5.3-3.5C577.8,353.9,579.8,353.3,580.6,355.5z"/>
	<path d="M240.4,231.2c5.6-1.9,10.6-5.2,16.5-6.2c1.8-0.8,2.6-0.3,2,1.6c-0.6,1.6-2,2.6-3.1,3.8c-6.9,7.2-14.4,13.8-20.8,21.3
		c-2.1,2.9-5.2,4.6-7.7,7.1c-2,2-4.4,3.3-4.5,6.7c-0.1,3.1-3.7,2.1-5.4,3.6c-2.8,2.7-5.9,4.9-10.1,3.8c-2.4-0.7-4-2.2-4.9-4.5
		c-0.1-0.5-0.1-1-0.1-1.5c0.6-2.4,2.5-3.8,4.1-5.5c8.2-8.5,17-16.4,24.8-25.3C233.6,233.4,236.8,231.9,240.4,231.2z"/>
	<path fill="#010101" d="M576.8,286.9c-0.3,0.7-0.7,1.4-1,2.1c-3.8,6.4-9.7,10.9-14.9,16c-1.6,1.6-3.3,1.8-3.9-1.1
		c-0.2-2.5,0.1-4.8,1.2-6c-3.6,2.6-7.1,7.4-12.9,8.7c-3.1-2.7,0.1-4,1.4-5.3c8.2-8.4,16.5-16.7,24.8-25c1.4-1.4,2.8-2.9,4.2-4.2
		c1.2-1.1,2.2-2.6,4.2-2.2C580.6,276,577,281.2,576.8,286.9z"/>
	<path fill="#FED424" d="M538.3,373.2c9.9-3.8,18.5-10.2,27.7-15.4c0.8,2.3-1,3.4-2.2,4.6c-9.7,9.8-19.4,19.6-29.3,29.2
		c-1.3,1.3-2.8,4.5-5.4,1.2c-0.6-5-0.7-10,0.1-15.1C531.3,374.5,534.7,373.5,538.3,373.2z"/>
	<path fill="#010101" d="M269,221.1c3.6,0,7.1-1.6,10.8-1.1c1.4-0.5,3.3-1.1,4.1,0.2c0.9,1.4-0.7,2.7-1.7,3.8
		c-3.8,4-7.8,7.7-11.5,11.8c-1.3,1.3-3.1,1.5-4.8,2.1c-6,1.5-11.5,4.4-17.5,5.9c-3.5-2-0.7-3.6,0.5-4.8c5.7-5.8,11.3-11.7,17.3-17.2
		C267.1,221.2,268,220.9,269,221.1z"/>
	<path fill="#010101" d="M573,299.1c-1,5-2.1,9.9-3.1,14.9c0.2,1.5-0.7,2.6-1.6,3.7c-4.9,4.9-9.6,10-14.8,14.6c-0.5,0-1-0.2-1.3-0.6
		c-3.3-5.2-0.1-10.1,0.8-15.1c0.3-1,0.8-1.9,1.3-2.8c4.8-5.5,10.1-10.6,15.4-15.6C572,296.1,572.5,296.4,573,299.1z"/>
	<path fill="#020202" d="M387,257.5c1,0.8,2,1.6,3,2.4c3.1,4.5,7.6,3.8,12,3.1c1.3,2.1,2.8,4.1-1.5,4.4c-3.2,0.2,0.2,1.8-0.4,2.6
		c-2.1,4-5.5,6.8-9,9.4c-1.8,0.3-3.1-0.7-4.5-1.7c-2.5-2.3-4.7-4.8-7.3-7c-0.9-0.8-1.8-1.5-2.1-2.8c1.1-5,5-7.5,8.8-10.1
		C386.5,257.9,386.7,257.8,387,257.5z"/>
	<path fill="#010101" d="M522,263c1.7,0,3.3,0,5,0c2,0.7,0.2,4.8,4,4c2.1-0.4,3.7-0.6,4.1-3c1.7-0.6,3.9-1.3,4.8,0.4
		c0.8,1.5-1.1,2.9-2.2,4.1c-4.5,4.4-8.6,9.2-13.6,13.1c-1.4,0.6-2.9,0.9-4.4,1.2c-3.4-0.1-5.9-1.7-7.6-4.6c-0.8-1.7-1.5-3.4-0.2-5.2
		c1.3-1.7,1.9-3.9,4-5c0.6,0,1.2-0.1,1.9-0.1c0.9-0.8,2.3,0.2,3-0.9C521,265.6,520.2,263.9,522,263z"/>
	<path fill="#040404" d="M582,263c1.2,0.2,2,0.7,2.1,2c0,1.7-0.7,2.7-2.6,2.4c-2.5-0.4-1.7,1.4-1.7,2.6
		c-11.4,11.3-22.8,22.5-34.1,33.8c-0.6,0.6-1.8,1.2-0.4,2.3c-1.4,4.5-6.2,4.9-9.1,7.6c-2,0.8-3.7,2.7-6.1,1.5c0.7-2,2.4-3.1,3.8-4.5
		c14.5-14.5,29-29,43.4-43.5c0.8-0.8,4.9-2.8-0.4-3.2C578.3,262.3,580.4,263.7,582,263z"/>
	<path fill="#010101" d="M430,295.1c1.2,1,2.3,2,4,2c2.7,1.8,5.4,3.7,8.1,5.5c1.6-0.1,2.8,0.4,3.3,2.1c-2,4.3-6.2,6.7-8.9,10.4
		c-0.4,0.2-0.8,0.4-1.3,0.4c-1.6-0.3-3-1.1-4.4-1.9c-3-2.1-6.1-4-9-6.1c-0.7-0.7-1.2-1.5-1.4-2.5c1.1-5,4.9-7.6,8.8-10.1
		C429.3,295,429.7,295,430,295.1z"/>
	<path fill="#010101" d="M321.9,221c0.1,0.2,0.2,0.4,0.2,0.7c0.8,2.3-1.1,3.3-2.2,4.5c-2.7,2.7-5.2,5.5-7.9,8.2
		c-0.7,0.3-1.5,0.5-2.2,0.4c-2.3-0.4-4.6-0.6-6.9-1c-3-1.1-6.3,0.1-9.3-1.2c-0.6-0.4-1.1-1.1-0.6-1.6c3.4-4.7,6.7-9.7,12.8-11.5
		c1.9,0.2,3.8-0.4,5.6,0.4C314.8,220.3,318.3,220.7,321.9,221z"/>
	<path fill="#010101" d="M545,266.2c3.4,0.2,5-4.4,8.9-3.1c1.1,0.4,2.3,0.2,2.2,1.8c2.2,0.8,2.9,2.2,1.1,4c-4.1,4.1-7.7,8.8-12.7,12
		c-2,0.6-4.1,0.4-6.2,0.5c-0.7,0-1.3,0.1-2,0c-2.2-0.3-5.3,0.9-6.2-1.7c-0.8-2.4,1.9-4,3.5-5.5C537.1,271,539.5,266.3,545,266.2z"/>
	<path fill="#010101" d="M312,233.8c2-5.2,7.5-7.4,10.1-12.1c2.2,1.2,4.5,1.3,6.9,1.1c3,1,6.1,2.1,9.1,3.1c0.1,0.3,0.2,0.6,0.2,0.9
		c-2.6,4.4-6.5,7.7-10.5,10.8c-0.7,0.3-1.5,0.3-2.2,0.2c-3.2-0.6-6.4-1.5-9.6-2C314.6,235.3,312.9,235.3,312,233.8z"/>
	<path fill="#F3CC26" d="M530.1,394c12.2-11.8,24.5-23.5,35.9-36.2c0.8-0.8,1.7-1.6,2.5-2.4c-0.1-1.3,0.8-1.2,1.7-1.2
		c1.2-0.3,2.2-1,2.9-2c1-0.4,2-0.8,3.1-1.2c0.7,1,0.7,2-0.2,3c-11.5,11.3-22.9,22.6-34.4,33.9c-3.8,3.7-7.6,7.4-11.5,11.1
		C528.5,397.3,528.5,395.7,530.1,394z"/>
	<path fill="#010101" d="M456,308.8c1.4,1.6,3.3,1.2,5,1.1c2.7,0.7,5.3,1.5,8,2.2c2.1,0.4,3,1.6,1.4,3.3c-3.2,3.4-6,7.3-10.4,9.4
		c-0.7,0.2-1.5,0.2-2.2,0.2c-3.4-0.6-6.6-1.8-9.8-3.2c-0.9-0.5-1.7-1-2.3-1.8c0.5-5.9,5.1-8.2,9.3-11
		C455.3,309,455.7,308.9,456,308.8z"/>
	<path fill="#010101" d="M386.1,257.8c-2,4.1-7,5.7-8.2,10.4c-2.2,0-4.5,0-6.7,0.1c-2.8,0.1-4.7-1.1-4-4.4c0.5-1.6,2-1.2,3.3-1.7
		c-2.3-0.1-3.3-1.5-4.1-3.1c1.3-5.2,4.5-8.5,9.6-9.9c0.3,0,0.6,0.1,0.9,0.1c0.6,1.3,1.6,2,3.1,1.8
		C381.6,253.6,385.6,254.1,386.1,257.8z"/>
	<path fill="#010101" d="M327.9,237.3c2.9-4,6.4-7.5,10.4-10.5c1.6-0.1,2.8,2,4.7,1c2.7,1.4,5.3,2.8,8,4.2c0.1,4.1-4.4,9-9.9,11
		c-3.6-0.2-6.6-2.1-9.9-3.1C329.9,239.2,328.2,239.1,327.9,237.3z"/>
	<path fill="#010101" d="M429,294.9c-2,4-7.1,5.6-8.1,10.3c-0.9,0.3-1.8-0.1-2.6-0.4c-2.3-1.7-4.8-3.1-6.7-5.3
		c-0.2-0.4-0.4-0.8-0.6-1.2c-0.4-1.3-1.2-2.3-1.4-3.7c1.7-4,4.9-6.5,8.2-8.8c2.4-0.4,3,1.6,4.2,3C424.4,290.7,427.5,292,429,294.9z"
		/>
	<path fill="#010101" d="M445.1,305c0.4,0.1,0.7,0,0.9-0.3c3.2,1.2,6.4,2.1,9,4.5c-2.5,4-7.4,6-9,10.7c-0.9,0.7-1.8,0.3-2.7,0
		c-2.5-1.5-5.9-1.8-7.3-5C437.8,310.4,441.7,307.9,445.1,305z"/>
	<path fill="#010101" d="M376.1,249c-3.4,2.9-7.3,5.5-9.1,9.9c-0.3,0.4-0.7,0.5-1.2,0.4c-2.8-2-5.5-3.9-8.1-6.1
		c-0.2-0.4-0.3-0.9-0.3-1.4c2.2-4.3,5.6-7.5,9.7-10c0.3,0.1,0.6,0.1,0.9,0C370.4,244.5,374.3,245.5,376.1,249z"/>
	<path fill="#010101" d="M364,239c0.1,0.2,0.1,0.5,0.1,0.7c-1.3,5.5-5.2,8.4-10.1,10.2c-3.5-0.4-6.3-2.2-8.5-5
		c0.9-5.2,6-10,10.7-10.1C358.8,236.3,361.4,237.6,364,239z"/>
	<path fill="#010101" d="M390.9,279.3c2.5-3.7,5.7-6.7,9.3-9.4c0.3,0.1,0.6,0.1,0.9,0c2,2,4,4,6.1,5.9c1.4,2.6-0.8,4-2.2,5.4
		c-1.9,2-3.6,4.3-6.4,5.4c-0.5,0.1-1,0.1-1.4-0.1c-2.5-1.4-4.4-3.6-6.1-5.8C390.7,280.3,390.7,279.8,390.9,279.3z"/>
	<path fill="#010101" d="M418.1,285.7c-2.7,3.1-5.4,6.2-8.1,9.3c-0.5,0.6-1.2,0.8-2,0.7c-3.4-1.2-5.6-3.8-7.4-6.8
		c1.7-4.8,5.5-7.6,9.5-10.3c0.3,0.1,0.6,0.1,0.9,0.2c2.1,2.3,4.4,4.5,7,6.2c0.3,0.1,0.4,0.3,0.3,0.5
		C418.3,285.6,418.2,285.7,418.1,285.7z"/>
	<path fill="#060605" d="M262,222.8c1.7-0.3,3.3-0.5,5-0.8c-5.6,5.7-11.3,11.4-16.8,17.3c-0.9,1-3.3,1.4-2.1,3.7
		c-0.9,3.5-4.8,3.5-6.8,5.6c-2.4,0.8-4.1,3.4-7.1,2.8c3.2-5.5,8.5-9.1,12.7-13.7c3.4-3.7,7-7.1,10.5-10.6c1-1,1.7-1.9-0.5-2.1
		C258.6,224.3,260.3,223.6,262,222.8z"/>
	<path fill="#060606" d="M202.8,267.4c-3.2-0.5-1.5-2.7-1.6-4.3c0.6-0.2,1.4-0.2,1.7-0.6c5.8-8.3,13.5-14.7,21.1-21.2
		c2.6-1.6,5.2-3.1,7.7-4.7c-1.3,3.4-4.4,5.2-6.7,7.7C217.8,252.2,209.5,259,202.8,267.4z"/>
	<path fill="#040404" d="M567.9,317c1.4,1.6-0.7,2.6-0.6,4c-0.5,2.5-0.8,5-1.5,7.5c-1.1,4.6-3.8,6-10,5.5c-0.6-0.7-2.3-0.2-2-1.9
		C557.1,325.7,563,321.8,567.9,317z"/>
	<path fill="#040404" d="M583.1,505c-0.2,0.3-0.2,0.6-0.1,0.9c-4.6,5.8-10.2,10.4-15.2,15.8c-1.1,1.2-2.4,1.5-3.5,0.4
		c-1.6-1.6,0.5-2.2,1.2-3c2.2-2.5,4.4-5.1,7.1-7c7.8-5.8,11.2-13.2,9.4-22.8c2,3.8,0,7.9,1,11.7C583.1,502.3,583.1,503.7,583.1,505z
		"/>
	<path fill="#070707" d="M573,299.1c-1.1-3.2-2.1-0.4-2.7,0.2c-5.1,4.8-10.1,9.8-15.1,14.7c-1.7-1.6-0.4-3.4-0.3-5.2
		c0.8-1.8,0.3-4.4,3-4.9c0.7,3,1.8,0.8,2.5,0.1c5.2-5,10.2-10,15.3-15c-0.3,1.7-0.5,3.3-0.8,5C574.4,295.7,573.7,297.4,573,299.1z"
		/>
	<path fill="#040404" d="M545,266.2c-6.1,2.9-9.6,8.6-15.4,13.5c3.7,0.2,6.2,0.3,8.7,0.5c0,0.6-0.2,1.1-0.8,1.5
		c-2.8,1.2-5.7,0.7-8.6,0.8c-1.7-0.2-3.6,0.1-4.9-1.4c5.1-5.4,10.2-10.8,15.4-16.2c-1.4-1.4-2.9-0.5-4.3-0.8
		c2.1-1.8,4.6-0.3,6.8-0.8c0.4,1.1-0.6,3.3,2.1,2.7C544.3,266,544.7,266.1,545,266.2z"/>
	<path fill="#060605" d="M545,279.9c3.6-3.7,7.1-7.5,10.8-11.1c1.5-1.4,1.9-2.5,0.3-3.9c1.3,0,2.7,0,4,0c2.5,0.1,4.3-2.5,7-1.9
		c0.8,0.7,2.3-0.5,2.8,1.1c-3-0.4-5.3,0.6-7.4,3c-3.6,4.2-8.3,7.5-11.4,12.2c0.3,0.5,0.1,1-0.3,1.3c-0.7,0.4-1.4,0.6-2.2,0.7
		C547.2,281.1,545.9,281.1,545,279.9z"/>
	<path fill="#060606" d="M286,218.8c1.3,0.1,2.7,0.2,4,0.3c0.5,2.2-1.3,3.2-2.4,4.5c-3.7,3.8-7.3,7.5-11.2,11.1
		c-0.8,0.6-1.7,1.1-2.7,1.3c-1.3,0.2-2.6,0.2-3.6-0.8c3.7-5.4,9.2-9.2,13.4-14.4c-1.1-1.2-2.5-0.5-3.7-0.8
		C281.7,218.8,283.9,219.3,286,218.8z"/>
	<path fill="#060606" d="M356.2,234.9c-4.7,1.9-7.8,5.5-10.2,9.9c-0.2,0.4-0.6,0.6-1.1,0.6c-1.5-0.4-2.9-1-4-2
		c-0.2-0.4-0.3-0.8-0.1-1.2c4.7-2,8-5.5,10.2-10c0.4,0,0.7,0,1.1-0.1c1.1,1,2.4,1.8,3.9,2.1C356.1,234.4,356.1,234.6,356.2,234.9z"
		/>
	<path fill="#0E0E0E" d="M162,168.9c0.3,0,0.7,0,1,0c4.3,0,8.6,0,12.9,0c1.7,0,3.3,0,5,0c1.6,0.2,3.2,0.1,3,2.6
		c-0.3,2.7-0.2,5.5-0.2,8.2l0,0c-4.5,3.5-9.7,1.3-14.5,1.9c-2.2-0.2-4.5,0.2-6.3-1.5c-0.3,0-0.7,0-1,0c1-1.6,2.7-0.9,4-1.3
		c3.3-1.7,6.8-1,10.3-1.2c2.1-0.1,4.6,0.4,5-2.7c0.4-3.2-2-3.3-4.2-3.5c-1.2-0.1-2.3-0.4-3.1-1.3C170,169.4,165.8,171.3,162,168.9z"
		/>
	<path fill="#070706" d="M410.1,278.6c-2.3,4-6.4,6.4-9.1,10.1c-0.3,0.4-0.7,0.6-1.2,0.5c-1.2-0.8-2.5-1.5-1.8-3.3
		c3.3-3.1,7.5-5.5,9-10.1c0.3,0.1,0.6,0.1,0.9,0.2C408.7,276.9,409.4,277.8,410.1,278.6z"/>
	<path fill="#040403" d="M571.9,498c0-1.7,0-3.3,0-5c-0.3-3,0.9-4.6,4.1-4.2c1.3,0.1,2.7,0.2,4,0.3c-5.9,4.1-7.2,10.3-8.1,16.8
		c0-0.3,0-0.7,0-1C570.1,502.7,570.7,500.3,571.9,498z"/>
	<path fill="#191918" d="M452,177.1c-1.3-0.7-0.7-2.1-1.1-3.1c0.2-0.3,0.2-0.6,0.2-0.9c2.6-0.7,5.3-0.7,7.9,0
		C459.5,179.5,454.4,175.9,452,177.1z"/>
	<path fill="#171717" d="M291.8,176.8c-1.6,0.1-3.2,0.2-4.8,0.3c-2.9,0.2-2.9-1.9-2.9-3.9c1.3-0.2,2.5-0.4,3.8-0.6
		C291.2,172.1,292.7,173.3,291.8,176.8z"/>
	<path fill="#121212" d="M617.9,352c0.4-0.4,0.8-0.8,1.1-1.1c0.8,0.1,1.7,0,2.4,0.2c1.5,0.3,3.9-1.2,4.3,1.8
		c0.2,1.6-0.4,2.8-2.1,2.4c-1.9-0.5-5.3,2.2-5.7-2.2C618,352.7,617.9,352.3,617.9,352z"/>
	<path fill="#131313" d="M612,352c-0.7,6.2-5.2,2.3-8,2.9C604.4,350.5,606.1,349.9,612,352z"/>
	<path fill="#151515" d="M598,354.9c-2.6,0.6-5.2,0.5-7.9,0.1c-0.6-3.2,0.9-4.4,3.9-4.1c1.3,0.1,2.5,0.2,3.8,0.2
		C597.8,352.4,597.9,353.6,598,354.9z"/>
	<path fill="#121008" d="M576,354c0.1-1,0.1-2,0.2-3c0,0-0.1,0-0.1,0c1.5-1,3.1-1.5,4.7-0.2c1.4,0.4,3.3-0.4,3.3,2.3
		c0,2.8-2.1,1.8-3.4,2.2C579.1,354.9,577,356,576,354z"/>
	<path fill="#171717" d="M437.1,173c2.6-0.6,5.2-0.7,7.9,0c0.4,2.9-0.4,4.1-3.7,4C438.4,176.9,436.5,176.6,437.1,173z"/>
	<path fill="#161616" d="M621.9,176.9c-1.3-0.5-3.7,1.2-3.9-2c-0.2-3.1,2.1-2.4,3.6-2.3c1.5,0.1,3.9-1.1,4.1,1.9
		C626,177.5,623.7,176.8,621.9,176.9z"/>
	<path fill="#181817" d="M465,173c2.9,0.5,7.3-3.2,8,3c-0.3,0.3-0.7,0.7-1,1c-1.7,0-3.3,0.1-5,0.1C464.1,176.8,465.3,174.6,465,173z
		"/>
	<path fill="#171717" d="M604,173c1.3-0.1,2.6-0.2,3.9-0.4c3.3-0.5,4.6,0.9,3.8,4.1c-1.6,0.1-3.2,0.2-4.8,0.3
		C603.9,177.3,603.8,175.3,604,173z"/>
	<path fill="#171717" d="M431,173c0.7,3.4-1.1,4.3-4,4.1c-1.5-0.5-3.9,0.6-3.7-2.4c0.1-3,2.4-1.9,4-2
		C428.5,172.6,429.8,172.9,431,173z"/>
	<path fill="#171717" d="M302.2,177c-1.6-0.4-4,1-4.1-2.1c-0.1-3.1,2.3-2.2,3.8-2.2c1.5,0,3.9-1.1,4,2
		C306,177.8,303.6,176.6,302.2,177z"/>
	<path fill="#191919" d="M603.9,266c-0.1-2.2,1.1-3.1,3.1-3.1c1.1,0.1,2.3,0.1,3.4,0.2c1.3,0.1,1.5,1,1.5,2.1c0,1.1-0.2,2.2-1.4,2.1
		C608.2,267.1,605.6,268.7,603.9,266z"/>
	<path fill="#191919" d="M598.1,266c-2.4,2.6-5.3,1.3-8.1,0.9c0.1-1.9-0.4-4.2,2.8-3.8C595,263.4,598.2,261.8,598.1,266z"/>
	<path fill="#171717" d="M332,177.1c-1.7,0-3.3,0-5,0c-1.7-1-0.8-2.7-1-4.1c2.8,0.3,6.3-2.5,8,2C333.7,176.1,333.2,176.9,332,177.1z
		"/>
	<path fill="#181817" d="M312.1,176.7c0-1.2-0.1-2.5-0.1-3.7c2.6-0.6,5.3-0.7,7.9,0.1C319.8,179.9,314.9,175.9,312.1,176.7z"/>
	<path fill="#191918" d="M590,173.1c2.6-0.8,5.3-0.8,7.9,0c0.9,5.6-3.6,3.3-6,4c-1.2-0.2-1.9-0.9-2.1-2.1
		C590,174.4,590,173.7,590,173.1z"/>
	<path fill="#18160C" d="M581,449.1c-1.5-0.1-3-0.1-4.5-0.2c-1.6-0.9-1.6-2.3-0.7-3.6c1.2-1.8,3.1-1.3,4.8-0.9
		c1.1,0.2,2.3,0.4,3.4,0.7C584.2,447.2,584.2,449.3,581,449.1z"/>
	<path fill="#171717" d="M598.1,446c0.1,2.2-1,3.2-3.1,3.1c-1.1-0.1-2.3-0.1-3.4-0.2c-1.3-0.1-1.5-1-1.5-2.1c0-1,0.1-2.2,1.4-2.1
		C593.7,444.9,596.3,443.4,598.1,446z"/>
	<path fill="#171717" d="M603.9,446c2.5-2.5,5.3-1.2,8.1-0.9c-0.1,1.9,0.3,4.2-2.9,3.8C607,448.6,603.8,450.3,603.9,446z"/>
	<path fill="#181818" d="M618,445c2.6-0.5,5.3-0.8,7.9,0.2c0.6,5.2-3.6,3.1-5.9,3.9c-1.3-0.1-2.1-0.7-2.2-2.1
		C617.9,446.3,617.9,445.7,618,445z"/>
	<path fill="#161616" d="M576,174c2.4-2.5,5.3-1.1,8-1c-0.3,1.5,1.1,4.1-2.1,3.8C579.6,176.7,576.2,178.5,576,174z"/>
	<path fill="#191919" d="M464.8,265c0.1-1.3,0.9-1.9,2.2-2.1c0.3,0.1,0.7,0.1,1,0.2c1.6,0.6,4.3-1.4,4.8,1.9
		c0.2,1.3-0.2,2.7-1.6,2.4C469,266.9,465.5,269.5,464.8,265z"/>
	<path fill="#1A1A1A" d="M459.1,265c-1.7,4.7-5.2,1.9-8.1,1.9c0.4-1.3-0.8-3.6,1.3-3.6C454.6,263.3,457.7,261.3,459.1,265z"/>
	<path fill="#1C1C1B" d="M445,267c-2.7,0.7-5.3,0.8-7.9-0.1c-0.8-4.3,2.4-3.7,4.9-4c1,0.4,2.4-0.1,3.1,1.1
		C445.1,265,445,266,445,267z"/>
	<path fill="#171716" d="M570.2,174c0.2,2.4-1,3.2-3.2,3.1c-1-0.1-1.9-0.2-2.9-0.2c-1.2-0.1-1.7-0.8-1.7-1.9c0-1-0.1-2.3,1.2-2.2
		C565.8,172.9,568.4,171.3,570.2,174z"/>
	<path fill="#171717" d="M632,444.9c1.5-0.1,2.9-0.3,4.4-0.3c1.3,0,3.1-0.6,3.3,1.8c0.2,2.5-1.4,2.5-3.2,2.5c-0.5,0-1,0.1-1.5,0.2
		C631.7,449.3,631.7,447.2,632,444.9z"/>
	<path fill="#181818" d="M192,177.1c-1.6-0.1-3.3-0.2-4.9-0.3c0-1.3-0.1-2.6-0.1-3.9c2.7,0,5.6-1.5,8,1.1
		C194.7,175.8,194.2,177.2,192,177.1z"/>
	<path fill="#191919" d="M187.1,263.2c1.8,0,3.6,0,5.5-0.1c1.5,0,2,0.8,2.1,2.1c0.1,1.5-0.6,2.2-2,2.1
		C189.8,267.3,185.7,268.8,187.1,263.2C187.2,263.1,187.1,263.2,187.1,263.2z"/>
	<path fill="#191919" d="M639.8,264.1c-0.7,6.1-5,2.6-7.9,3C632.2,262.5,633.8,261.9,639.8,264.1z"/>
	<path fill="#1B1B1B" d="M622,262.9c1.3,0.5,3-0.3,4,1.2c0,0.9,0,1.8,0,2.7c-2.6,1-5.3,0.9-7.9,0.2
		C617.3,263.6,619.1,262.7,622,262.9z"/>
	<path fill="#171717" d="M347.8,176c-0.3,0.3-0.6,0.7-0.8,1c-1.8,0-3.6-0.1-5.4-0.1c-0.9,0-1.6-0.4-1.6-1.4c-0.1-1-0.3-2,0.5-2.7
		C342.5,171.2,347.1,173.2,347.8,176z"/>
	<path fill="#181818" d="M270.1,173.3c2.6-1.1,5.2-0.8,7.9-0.3c1.1,5.8-3.6,3.3-6,4.2c-1.2-0.2-1.6-1.1-2-2.1
		C270.1,174.4,270.1,173.9,270.1,173.3z"/>
	<path fill="#151514" d="M634,350.9c1.7,0,3.3,0.1,5,0.1c0.3,1.2,0.5,2.5,0.8,3.7c-1.3,0.2-2.5,0.4-3.8,0.6
		c-3.4,0.5-4.9-0.6-3.9-4.2C632.8,351,633.4,350.9,634,350.9z"/>
	<path fill="#181818" d="M632.1,176.8c0-1.3-0.1-2.6-0.1-3.9l0,0c2.7-0.4,5.3-1.2,7.9,0.5C639.5,179.6,634.8,176,632.1,176.8z"/>
	<path fill="#1B1B1B" d="M486.9,266.7c-2.8,0.6-5.6,2-8.1-0.7c-0.2-2.4,1.1-3.1,3.2-3.1c1.6,0.6,3.6-0.5,4.9,1.3
		C486.9,265,486.9,265.9,486.9,266.7z"/>
	<path fill="#191919" d="M423.2,266.9c-0.5-3,1.1-4.1,3.8-4c1.5,0.6,4.3-0.9,4,2.6c-0.2,3.1-2.6,1.7-4,1.9
		C425.7,267.5,424.4,267.1,423.2,266.9z"/>
	<path fill="#191919" d="M417.2,264c-0.7,6.8-5.1,2.4-8,2.7C410.1,260.5,414,263.5,417.2,264z"/>
	<path fill="#121212" d="M570.2,354.2c-0.3,0.8-1,1-1.7,1.2c-0.5,0-1,0-1.5-0.1c-1.6-0.6-4.3,1.5-4.6-2c-0.2-1.8,0.8-2.5,2.4-2.2
		C567,351.4,570.5,349.5,570.2,354.2z"/>
	<path fill="#191919" d="M412,177.1c-1-0.4-1.9-0.8-2.9-1.1c0-0.9,0-1.8,0-2.6c2.6-1.2,5.2-0.8,7.9-0.4
		C418.2,177.7,414.6,176.8,412,177.1z"/>
	<path fill="#161616" d="M482.8,177c-1.7-0.3-3.8,0.8-3.9-2.1c-0.1-3.3,2.3-2.2,3.8-2.2c1.6,0,4-1,3.9,2.2
		C486.5,178,484,176.4,482.8,177z"/>
	<path fill="#0F0F0F" d="M552,177.1c-1.8-0.2-4.1-0.1-3.3-2.9c0.8-2.9,3.4-1.3,5.1-1.4c3.6-0.3,2,2.5,2,4.2
		C554.5,177,553.3,177,552,177.1z"/>
	<path fill="#0C0C0C" d="M201.2,176.9c0.1-1.4-1.3-3.6,0.9-4.1c1.9-0.4,4.4-1.1,5.9,0.6c0.9,1,0.7,2.8-1.1,3.6
		C205.1,177,203.1,177,201.2,176.9z"/>
	<path fill="#0D0D0D" d="M493.2,176.9c-0.1-1.4-1.1-3.4,0.6-4c1.8-0.6,4.1-0.5,5.8,0.1c1.7,0.6,0.8,2.5,0.3,3.9
		C497.7,176.9,495.4,176.9,493.2,176.9z"/>
	<path fill="#0D0D0D" d="M215.2,176.9c-0.9-3-0.3-4.5,3.4-4.4c3.5,0.1,4.4,1.3,3.3,4.4C219.6,176.9,217.4,176.9,215.2,176.9z"/>
	<path fill="#0F0F0F" d="M231,177.1c-2-0.1-2.5-1.3-2.2-3c0.6-2.5,2.7-1.2,4.1-1.4c1.3-0.1,3.2-0.7,3.2,1.8c0,0.8-0.2,1.6-0.3,2.4
		C234.2,177,232.6,177,231,177.1z"/>
	<path fill="#0D0D0D" d="M243.1,176.9c-0.3-1.4-1.3-3.3,0.4-3.9c1.7-0.6,3.9-0.4,5.8-0.1c1.1,0.2,0.8,1.6,0.7,2.6
		c-0.2,2.1-2.1,1-3.1,1.6C245.7,177,244.4,177,243.1,176.9z"/>
	<path fill="#0C0C0C" d="M257.1,177c-0.5-1.4-1.4-3.3,0.3-3.9c1.7-0.7,4-0.7,5.8-0.1c1.7,0.6,0.6,2.6,0.6,4
		C261.6,176.9,259.3,176.9,257.1,177z"/>
	<path fill="#0B0B0B" d="M556,355c-1.3,0.1-2.6,0.1-3.8,0.2c-3.6,0.4-4.3-1.2-3.1-4.2c1.6,0,3.3-0.1,4.9-0.1
		C557.1,351.1,555.8,353.4,556,355z"/>
	<path fill="#090909" d="M535.1,351c1.3,0,2.6-0.1,3.9-0.1c1,0.1,1.9,0.1,2.9,0.2c1.2,3.8-0.7,4.2-3.9,4.3
		C534.2,355.3,534.3,353.6,535.1,351z"/>
	<path fill="#0D0D0D" d="M535.1,176.9c-0.8-2.5-1-4.4,2.8-4.4c3.3,0,5.1,0.6,3.9,4.3C539.6,176.9,537.4,176.9,535.1,176.9z"/>
	<path fill="#0C0C0C" d="M521.2,176.9c-0.1-1.5-1.4-3.6,1-4.1c1.8-0.4,4.2-1,5.7,0.5c0.9,0.8,0.9,2.8-0.8,3.8
		C525.1,177,523.1,177,521.2,176.9z"/>
	<path fill="#0C0C0C" d="M396.1,176.9c-0.9-2.6-1.1-4.4,2.7-4.4c3.3,0,5.2,0.6,4,4.3C400.6,176.9,398.3,176.9,396.1,176.9z"/>
	<path fill="#0C0C0C" d="M382.1,176.9c-0.3-1.4-1.2-3.3,0.5-3.9c1.7-0.6,3.9-0.4,5.8,0c1.3,0.3,0.8,1.9,0.6,3c-0.2,1-1.3,0.8-2,1.1
		C385.4,177,383.8,177,382.1,176.9z"/>
	<path fill="#0F0F0F" d="M372,177.1c-1.5-0.7-4.5,1-4.1-2.6c0.3-3.4,3.1-1.6,4.7-1.8c3.8-0.5,2.7,2.2,2.3,4.2
		C373.9,177,373,177,372,177.1z"/>
	<path fill="#0D0D0D" d="M354.2,176.9c-0.1-1.4-1.1-3.4,0.5-4c1.7-0.6,4-0.6,5.8,0.1c1.7,0.6,0.8,2.5,0.4,3.9
		C358.6,176.9,356.4,176.9,354.2,176.9z"/>
	<path fill="#0E0E0E" d="M507.1,176.9c-1.1-3.8,0.7-4.3,4-4.3c3.8,0,3.5,1.9,2.7,4.4c-0.6,0-1.2,0.1-1.9,0.1
		C510.4,177,508.8,176.9,507.1,176.9z"/>
	<path fill="#0F0F0F" d="M513.8,263.1c0.8,2.5,1.1,4.4-2.7,4.4c-3.3,0-5.1-0.6-4.1-4.3C509.3,263.2,511.6,263.1,513.8,263.1z"/>
	<path fill="#0F0F0F" d="M499.9,263.1c0.5,1.4,1.4,3.3-0.3,3.9c-1.7,0.7-4,0.7-5.8,0.1c-1.7-0.6-0.7-2.6-0.6-4
		C495.4,263.1,497.6,263.1,499.9,263.1z"/>
	<path fill="#F5D64F" d="M580.7,350.9c-1.6,0.1-3.1,0.1-4.7,0.2c1-1.9,2.5-3.1,4.8-3C580.8,349,580.8,350,580.7,350.9z"/>
	<path fill="#090909" d="M183.9,269.9c0,0-0.4,0.1-0.4,0.1l-0.4-0.1c0-3.2,0-6.4,0-9.6c0.3-0.1,0.6-0.2,0.9-0.1
		c0.1,1.6,0.2,3.3,0.2,4.9C184,266.6,184,268.2,183.9,269.9z"/>
	<path fill="#ECECEC" d="M639.8,173.4c-2.6-1.3-5.2-0.8-7.9-0.5c0.3-0.4,0.7-0.8,1-1.2c1.7,0,3.4,0,5.1,0
		C638.9,172,639.8,172.2,639.8,173.4z"/>
	<path fill="#0A0A0A" d="M311.2,219.9c-2.1,0-4.2,0.1-6.2,0.1c-0.3-0.2-0.4-0.4-0.3-0.6c0.1-0.2,0.2-0.3,0.4-0.3l-0.1-0.4
		c0.3,0,0.7,0,1,0c1.6,0.1,3.3,0.3,4.9,0.4C311,219.5,311.1,219.7,311.2,219.9z"/>
	<path fill="#2F2F2F" d="M520.8,267c0.3,0.1,0.7,0,0.9,0.2c0.4,0.3,0.5,0.8-0.2,0.8c-1.2,0-2.5,0-3.7-0.1
		C518.8,267.6,519.8,267.3,520.8,267z"/>
	<path fill="#040404" d="M478,506.1c1-0.1,1.9-0.1,2.9-0.2c0.4-3.9-0.7-7.7-0.3-11.5c0.2-2,0-4,1.3-5.6c3.1-1.8,6.1-1.8,9.2-0.1
		c0.8,3.4,0.5,6.9-0.2,10.3c-7,6.9-14,13.7-21.1,20.6c-0.8,0.8-1.7,1.6-2.5,2.5c-1,1.1-2.2,0.8-3.1,0c-1.6-1.4,0.3-2,0.9-2.6
		C469.4,514.9,473.7,510.5,478,506.1z"/>
	<path fill="#040404" d="M298,506.1c1.2-0.2,1.7-1.1,2-2.1c1.6-3.1,4.1-5.5,6.7-7.7c1.1-0.9,2.3-2.7,4.1-0.7
		c0.6,1.6,0.7,3.2-0.9,4.4c-6.6,6.5-13.3,13.1-19.9,19.6c-0.8,0.8-1.7,1.6-2.5,2.4c-1.1,1.1-2.2,0.8-3.1,0c-1.6-1.4,0.3-2,0.9-2.6
		C289.4,514.9,293.7,510.5,298,506.1z"/>
	<path fill="#040404" d="M174,170c1.3,0,2.6,0.1,3.9,0c3.1-0.3,5.2,0.1,5.2,4.3c0.1,4.3-1.7,5-5.3,4.7c-3.9-0.2-7.9-0.2-11.8-0.2
		C168.7,175.9,171.3,172.9,174,170z"/>
	<path fill="#040404" d="M164,260.2c1.7,0,3.3,0,5,0c-6.3,6.4-12.5,12.8-18.8,19.1c-0.7,0.7-1.4,3.4-3.3,1.4c-1.6-1.7-0.1-3,1.1-4.2
		c4.8-4.8,9.6-9.6,14.4-14.4C163,261.5,163.5,260.8,164,260.2z"/>
	<path fill="#040404" d="M162.1,441.7c1.6,0.2,3.2,0.3,4.8,0.5c-5.5,5.6-10.9,11.2-16.4,16.7c-0.9,0.9-1.7,3.6-3.6,1.7
		c-1.9-1.9,0.3-3.2,1.5-4.5c3.5-3.6,7.1-7,10.6-10.6C160.1,444.3,161.1,442.9,162.1,441.7z"/>
	<path fill="#040404" d="M400.8,504c0,1.4,0.8,2.1,2.2,2.1c-5,5.1-9.9,10.2-14.9,15.3c-1.1,1.1-2.4,2.3-3.8,1
		c-1.8-1.7,0.5-2.6,1.3-3.4C390.6,513.9,395.7,509,400.8,504z"/>
	<path fill="#040404" d="M238,506.1c1.7,0,3.3,0,5,0c-5,5.1-9.9,10.2-14.9,15.3c-1.1,1.1-2.4,2.4-3.8,1c-1.8-1.7,0.5-2.5,1.3-3.4
		C229.6,514.6,233.8,510.4,238,506.1z"/>
	<path fill="#040404" d="M258,506.1c1.7,0,3.3,0,5,0c-5,5.1-9.9,10.2-14.9,15.3c-1.1,1.1-2.4,2.4-3.8,1c-1.8-1.7,0.5-2.5,1.3-3.4
		C249.6,514.6,253.8,510.4,258,506.1z"/>
	<path fill="#040404" d="M278,506.1c1.7,0,3.3,0,5,0c-5,5.1-9.9,10.2-14.9,15.3c-1.1,1.1-2.4,2.4-3.8,1c-1.8-1.7,0.5-2.5,1.3-3.4
		C269.6,514.6,273.8,510.4,278,506.1z"/>
	<path fill="#040404" d="M418,506.1c1.7,0,3.3,0,5,0c-5,5.1-9.9,10.2-14.9,15.3c-1.1,1.1-2.4,2.4-3.8,1c-1.8-1.7,0.5-2.5,1.3-3.4
		C409.6,514.6,413.8,510.4,418,506.1z"/>
	<path fill="#040404" d="M498,506.2c1.7,0,3.3,0,5,0c-5,5.1-9.9,10.2-14.9,15.2c-1.1,1.1-2.4,2.3-3.8,1c-1.8-1.7,0.5-2.5,1.3-3.4
		C489.6,514.7,493.8,510.4,498,506.2z"/>
	<path fill="#040404" d="M323,506.2c-5,5.1-9.9,10.2-14.9,15.2c-1.1,1.1-2.4,2.3-3.8,1c-1.8-1.7,0.5-2.5,1.3-3.4
		c4.1-4.3,8.3-8.6,12.4-12.8C319.7,504.5,321.3,504.5,323,506.2z"/>
	<path fill="#040404" d="M518,506.2c1.7,0,3.3,0,5,0c-5,5.1-9.9,10.2-14.9,15.2c-1.1,1.1-2.4,2.3-3.8,1c-1.8-1.7,0.5-2.5,1.3-3.4
		C509.6,514.7,513.8,510.4,518,506.2z"/>
	<path fill="#040404" d="M343,506.2c-5,5.1-9.9,10.2-14.9,15.2c-1.1,1.1-2.4,2.3-3.8,1c-1.8-1.7,0.5-2.5,1.3-3.4
		c4.1-4.3,8.3-8.6,12.4-12.8C339.7,504.5,341.3,504.5,343,506.2z"/>
	<path fill="#040404" d="M538,506.2c1.7,0,3.3,0,5,0c-5,5.1-9.9,10.2-14.9,15.2c-1.1,1.1-2.4,2.3-3.8,1c-1.8-1.7,0.5-2.5,1.3-3.4
		C529.6,514.7,533.8,510.4,538,506.2z"/>
	<path fill="#040404" d="M383,506.2c-5,5.1-9.9,10.2-14.9,15.2c-1.1,1.1-2.4,2.3-3.8,1c-1.8-1.7,0.5-2.5,1.3-3.4
		c4.1-4.3,8.3-8.6,12.4-12.8C379.7,505.3,381.3,504.6,383,506.2z"/>
	<path fill="#040404" d="M363,506.2c-5,5.1-9.9,10.2-14.9,15.2c-1.1,1.1-2.4,2.3-3.8,1c-1.8-1.7,0.5-2.5,1.3-3.4
		c4.1-4.3,8.3-8.6,12.4-12.8C359.7,504.5,361.3,504.5,363,506.2z"/>
	<path fill="#040404" d="M219.3,505.8c1.2,0.1,2.4,0.2,3.7,0.3c-5,5.1-10,10.2-15,15.3c-1.1,1.1-2.5,2.3-3.8,0.9
		c-1.7-1.8,0.6-2.6,1.5-3.4C210.2,514.6,214.1,509.5,219.3,505.8z"/>
	<path fill="#040404" d="M458,506.1c1.7,0,3.3,0,5,0c-5,5.1-9.9,10.2-14.9,15.3c-1.1,1.1-2.4,2.4-3.8,1c-1.8-1.7,0.5-2.5,1.3-3.4
		C449.6,514.6,453.8,510.4,458,506.1z"/>
	<path fill="#040404" d="M438,506.1c1.7,0,3.3,0,5,0c-5,5.1-9.9,10.2-14.9,15.3c-1.1,1.1-2.4,2.4-3.8,1c-1.8-1.7,0.5-2.5,1.3-3.4
		C429.6,514.6,433.8,510.4,438,506.1z"/>
	<path fill="#040404" d="M598,506.1c1.7,0,3.3,0,5,0c-5,5.1-10,10.2-14.9,15.3c-1.2,1.3-2.6,1.9-3.8,0.5c-1.5-1.6,0.6-2.2,1.3-3
		C589.6,514.7,593.8,510.4,598,506.1z"/>
	<path fill="#040404" d="M183,506.2c-5,5.1-10,10.2-14.9,15.3c-1.2,1.3-2.6,1.9-3.8,0.5c-1.5-1.6,0.6-2.2,1.3-3
		c4.1-4.3,8.3-8.6,12.4-12.8C179.7,504.5,181.3,504.5,183,506.2z"/>
	<path fill="#040404" d="M618,506.1c1.7,0,3.3,0,5,0c-5,5.1-10,10.2-14.9,15.3c-1.2,1.3-2.6,1.9-3.8,0.5c-1.5-1.6,0.6-2.2,1.3-3
		C609.6,514.7,613.8,510.4,618,506.1z"/>
	<path fill="#040404" d="M203,506.2c-5,5.1-10,10.2-14.9,15.3c-1.2,1.3-2.6,1.9-3.8,0.5c-1.5-1.6,0.6-2.2,1.3-3
		c4.1-4.3,8.3-8.6,12.4-12.8C199.7,505.3,201.3,504.6,203,506.2z"/>
	<path fill="#040404" d="M638,506.1c1.7,0,3.3,0,5,0c-5,5.1-10,10.2-14.9,15.3c-1.2,1.3-2.6,1.9-3.8,0.5c-1.4-1.6,0.6-2.2,1.3-3
		C629.6,514.7,633.8,510.4,638,506.1z"/>
	<path fill="#040404" d="M163,506.1c-4.2,4.4-8.4,8.8-12.8,13.1c-0.8,0.7-1.4,3.3-3.3,1.4c-1.4-1.4-0.4-2.7,0.7-3.8
		c4.7-4.6,9.5-9.2,14.2-13.8c1,0.5,1.1,1.5,1.2,2.5C163,505.7,163,505.9,163,506.1z"/>
	<path fill="#040404" d="M161.8,123c0,1.7,0,3.3,0,5c-3.9,3.8-7.8,7.7-11.8,11.4c-0.8,0.7-1.4,2.8-3,1.3c-1.4-1.3-0.7-2.6,0.5-3.8
		C152.4,132.3,157.1,127.7,161.8,123z"/>
	<path fill="#040404" d="M161.8,103c0,1.7,0,3.3,0,5c-3.9,3.8-7.8,7.7-11.8,11.4c-0.8,0.7-1.4,2.8-3,1.3c-1.4-1.3-0.7-2.6,0.5-3.8
		C152.4,112.3,157.1,107.7,161.8,103z"/>
	<path fill="#040404" d="M161.8,488c-3.9,3.8-7.8,7.7-11.8,11.4c-0.8,0.7-1.4,2.8-3,1.3c-1.4-1.3-0.7-2.6,0.5-3.8
		c4.8-4.6,9.5-9.3,14.3-13.9C163.5,484.7,163.5,486.3,161.8,488z"/>
	<path fill="#040404" d="M161.8,363c0,1.7,0,3.3,0,5c-3.9,3.8-7.8,7.7-11.8,11.4c-0.8,0.7-1.4,2.8-3,1.3c-1.4-1.3-0.7-2.6,0.5-3.8
		C152.4,372.3,157.1,367.7,161.8,363z"/>
	<path fill="#040404" d="M161.8,283c0,1.7,0,3.3,0,5c-3.9,3.8-7.8,7.7-11.8,11.4c-0.8,0.7-1.4,2.8-3,1.3c-1.4-1.3-0.7-2.6,0.5-3.8
		C152.4,292.3,157.1,287.7,161.8,283z"/>
	<path fill="#040404" d="M161.8,203c0,1.7,0,3.3,0,5c-3.9,3.8-7.8,7.7-11.8,11.4c-0.8,0.7-1.4,2.8-3,1.3c-1.4-1.3-0.7-2.6,0.5-3.8
		C152.4,212.3,157.1,207.7,161.8,203z"/>
	<path fill="#040404" d="M161.8,468c-3.9,3.8-7.8,7.7-11.8,11.4c-0.8,0.7-1.4,2.8-3,1.3c-1.4-1.3-0.7-2.6,0.5-3.8
		c4.8-4.6,9.5-9.3,14.3-13.9C163.5,464.7,163.5,466.3,161.8,468z"/>
	<path fill="#040404" d="M161.8,223c0,1.7,0,3.3,0,5c-3.9,3.8-7.8,7.7-11.8,11.4c-0.8,0.7-1.4,2.8-3,1.3c-1.4-1.3-0.7-2.6,0.5-3.8
		C152.4,232.3,157.1,227.7,161.8,223z"/>
	<path fill="#040404" d="M161.8,183c0,1.7,0,3.3,0,5c-3.9,3.8-7.8,7.7-11.8,11.4c-0.8,0.7-1.4,2.8-3,1.3c-1.4-1.3-0.7-2.6,0.5-3.8
		C152.4,192.3,157.1,187.7,161.8,183z"/>
	<path fill="#040404" d="M161.8,143c0,1.7,0,3.3,0,5c-3.9,3.8-7.8,7.7-11.8,11.4c-0.8,0.7-1.4,2.8-3,1.3c-1.4-1.3-0.7-2.6,0.5-3.8
		C152.4,152.3,157.1,147.7,161.8,143z"/>
	<path fill="#040404" d="M161.8,243c0,1.7,0,3.3,0,5c-3.9,3.8-7.8,7.7-11.8,11.4c-0.8,0.7-1.4,2.8-3,1.3c-1.4-1.3-0.7-2.6,0.5-3.8
		C152.4,252.3,157.1,247.7,161.8,243z"/>
	<path fill="#040404" d="M161.8,383c0,1.7,0,3.3,0,5c-3.9,3.8-7.8,7.7-11.8,11.4c-0.8,0.7-1.4,2.8-3,1.3c-1.4-1.3-0.7-2.6,0.5-3.8
		C152.4,392.3,157.1,387.7,161.8,383z"/>
	<path fill="#040404" d="M161.8,323c0,1.7,0,3.3,0,5c-3.9,3.8-7.8,7.7-11.8,11.4c-0.8,0.7-1.4,2.8-3,1.3c-1.4-1.3-0.7-2.6,0.5-3.8
		C152.4,332.3,157.1,327.7,161.8,323z"/>
	<path fill="#040404" d="M161.8,423c0,1.7,0,3.3,0,5c-3.9,3.8-7.8,7.7-11.8,11.4c-0.8,0.7-1.4,2.8-3,1.3c-1.4-1.3-0.7-2.6,0.5-3.8
		C152.4,432.3,157.1,427.7,161.8,423z"/>
	<path fill="#040404" d="M161.8,163c0,1.7,0,3.3,0,5c-3.9,3.8-7.8,7.7-11.8,11.4c-0.8,0.7-1.4,2.8-3,1.3c-1.4-1.3-0.7-2.6,0.5-3.8
		C152.4,172.3,157.1,167.7,161.8,163z"/>
	<path fill="#040404" d="M161.8,343c0,1.7,0,3.3,0,5c-3.9,3.8-7.8,7.7-11.8,11.4c-0.8,0.7-1.4,2.8-3,1.3c-1.4-1.3-0.7-2.6,0.5-3.8
		C152.4,352.3,157.1,347.7,161.8,343z"/>
	<path fill="#040404" d="M161.8,303c0,1.7,0,3.3,0,5c-3.9,3.8-7.8,7.7-11.8,11.4c-0.8,0.7-1.4,2.8-3,1.3c-1.4-1.3-0.7-2.6,0.5-3.8
		C152.4,312.3,157.1,307.7,161.8,303z"/>
	<path fill="#040404" d="M161.8,403c0,1.7,0,3.3,0,5c-3.9,3.8-7.8,7.7-11.8,11.4c-0.8,0.7-1.4,2.8-3,1.3c-1.4-1.3-0.7-2.6,0.5-3.8
		C152.4,412.3,157.1,407.7,161.8,403z"/>
	<path fill="#040404" d="M169,360.8c-1.7,0-3.3,0-5,0c3-3.2,6-6.4,8.9-9.6c1.7,0,3.3,0,5,0C176.8,356.1,172.9,358.4,169,360.8z"/>
	<path fill="#1A1A1A" d="M390,506c0-0.3,0-0.7,0.1-1c-1.4-1.4-1.4-3.2-1.5-5c-0.1-1.8,0.4-3.5,1.5-5c0.9-1.8-0.6-4,1-5.7
		C390.6,494.9,392.5,500.6,390,506z"/>
	<path fill="#1F1F1F" d="M491,499c0-3.3,0-6.6,0-9.9c2.5,0.1,1.5,1.6,1.2,2.8c0,1.7,0,3.4,0,5c1.8,2.7,1.7,5.3,0,8c0,0.3,0,0.7,0,1
		C490,503.9,491.5,501.3,491,499z"/>
	<path fill="#272727" d="M183,442.2c0.3-0.1,0.6-0.1,0.9,0c1.1,0.8,1.3,2,1.4,3.2c-0.3,2.5,1.2,5.6-2.4,6.9c0.2-0.1,0.2-0.3,0.1-0.4
		C183,448.6,183,445.4,183,442.2z"/>
	<path fill="#060606" d="M506,324.1c-0.7,0.3-1.4,0.7-2,1c-1.8,0.6-3.3,2.3-5.5,1.4c-1.7-2.1,0.6-2.8,1.6-3.8
		c5.1-5.5,11.2-10.2,15.6-16.4c1.6-2.2,4.2-2.8,6.3-4.2c2-0.6,3.6-2.6,6-1.2c-5.5,6.8-12.2,12.4-18.1,18.7
		C508.5,321.1,506.8,322.2,506,324.1z"/>
	<path fill="#666666" d="M555,280c-1.4-0.1-2.7-0.1-4.1-0.2c0.1-0.2,0.1-0.5,0.1-0.7c1.4,0.1,2.9,0.1,4.3,0.2
		c0.6,0.1,0.6,0.8,0.1,0.3C555.4,279.7,555.2,279.9,555,280z"/>
	<path fill="#F3CC26" d="M580.1,365c0,1.7,0,3.3,0,5c-1.1,1.8-2.4,3.6-3.9,5.1c-13.7,13.6-27.2,27.3-41,40.8
		c-1.5,1.5-2.7,4.6-5.9,2.5c-0.5-1.6-0.6-3.1,0.8-4.3c15.2-15,30.3-30.1,45.5-45.1C577,367.5,578.6,366.3,580.1,365z"/>
	<path fill="#060606" d="M353.7,249.1c4.7-1.7,7.4-5.8,10.4-9.4c1.2,0.3,2.3,0.9,3,2c-3,3.4-6,6.8-9.1,10.2c-1.9,0.9-3-0.3-4.2-1.5
		C353.6,250,353.6,249.6,353.7,249.1z"/>
	<path fill="#050505" d="M473,312.2c1,0.3,2,0.6,3,0.9c-2,6-7.1,9.1-11.6,12.8c-1.8,0.2-3.8,0.8-4.5-1.8c3.7-2.4,6.2-6.1,9.6-8.9
		c1.6-1.4,0.5-2.1-0.4-3C470.3,312.1,471.6,312.1,473,312.2z"/>
	<path fill="#FDD324" d="M580.6,444.3c-2.9,0.2-5.5,0.6-4.1,4.6c-2.2,0-4.4,0-6.6,0c-0.7-0.9-0.9-2-1.5-2.9c-2.7-1.7-3-3.6-0.6-5.9
		c3-2.9,5.8-5.9,8.9-8.8c0.9-0.9,1.9-2,3.5-1.3c0.8,4.6-0.8,9.3,0.9,13.8C580.9,444.1,580.8,444.2,580.6,444.3z"/>
	<path fill="#FED424" d="M530,449c0-3.3,0.1-6.7,0.1-10c0.9-1.8,2.1-3.4,3.5-4.8c13.9-13.8,27.7-27.7,41.6-41.5
		c1.3-1.3,2.4-3.3,4.9-2.7c0,5,0,10,0,15c-1.1,1.6-2.1,3.3-3.5,4.8c-10.6,10.5-21.2,21.1-31.7,31.7c-1.9,1.9-3.9,3.8-6.8,3.7
		c-2.8-0.1-2.7,2.5-4.1,3.8C532.6,448.9,531.3,448.9,530,449z"/>
	<path fill="#FED424" d="M580,410c0,5,0,10,0,15c-5.7,8.1-13.3,14.3-20.3,21.1c-1,1-2.2,1.3-3.6,0.4c-3.7-2.5-6.4-1.4-8.3,2.4
		c-1.6,0-3.3,0-4.9,0c-1.6-1.9-0.4-3.5,0.8-4.8c10.9-11.2,22-22.2,33.1-33.1C577.8,410.2,578.7,409.3,580,410z"/>
	<path fill="#F3CB26" d="M580,410c-12.4,11.3-23.8,23.6-35.8,35.3c-1.1,1-1.3,2.3-1.2,3.6c-0.4,0-0.8,0-1.2,0
		c-2.3-3.4-4.5-3.1-6.7,0c-0.4,0-0.7,0-1.1,0c-0.4-3.4,0.4-5.6,4.5-5c2.3,0.3,3.6-1.5,5-2.9c10.8-10.8,21.7-21.7,32.5-32.5
		c1.3-1.3,2.7-2.4,4.1-3.6C580.1,406.6,580.1,408.3,580,410z"/>
	<path fill="#F1C925" d="M548,448.9c0.2-4.5,5.2-7.5,8.2-4.3c2.7,2.8,3.2,0.5,4.3-0.6c6.7-6.2,12.6-13.2,19.7-19.1c0,1.7,0,3.3,0,5
		c-5,3.9-9,8.7-13.5,13.1c0.9,1.5,2.9,0.4,3.5,1.9c-1.9,2.1-6.1,0.2-7.1,4c-2.4,0-4.8,0-7.1,0c-2.2-3.4-4.5-3.1-6.8,0
		C548.7,448.9,548.3,448.9,548,448.9z"/>
	<path fill="#161303" d="M563,448.9c-1.2-2.7-1-4.5,2.7-4.3c1.5,0.1,2.9,0.2,4.4,0.3c-0.1,1.3-0.1,2.6-0.2,3.9
		C567.5,448.9,565.2,448.9,563,448.9z"/>
	<path fill="#0C0A02" d="M549.1,448.9c-0.9-2.6-0.7-4.2,2.8-4.3c3.3,0,5,0.7,3.9,4.3C553.6,448.9,551.3,448.9,549.1,448.9z"/>
	<path fill="#0E0C04" d="M535.1,448.9c-1-3.1-0.1-4.3,3.3-4.4c3.6-0.1,4.2,1.3,3.4,4.3C539.6,448.9,537.3,448.9,535.1,448.9z"/>
	<path fill="#FEFEFE" d="M422,306.9c3.4,1.5,6.4,3.4,9,6c0.7,1.8-0.6,2.8-1.6,3.8c-5.6,5.8-11.3,11.5-17.1,17.1
		c-1.2,1.2-2.5,2.2-4.3,2c-3.2-1.2-5.4-3.4-6.7-6.6c-0.2-1,0-2.1,0.6-2.8C408.3,319.6,414.3,312.4,422,306.9z"/>
	<path fill="#010101" d="M305.1,219.2c0,0.3,0,0.6-0.1,0.8c-4.4,3.5-8.2,7.6-12,11.8c-1.6,2.1-4.2,1.3-6.2,2.2
		c-3.6,0-7.2,2.5-10.8,0c4.7-5,9.3-9.9,14-14.9C295,218.4,300,218.7,305.1,219.2z"/>
	<path fill="#0A0A0A" d="M287,232.8c1.8-1.6,4-0.5,6-1c3.3,0.7,6.8-0.7,10,1c-2.3,0.1-4.7,0.1-7,0.2c-1.5,0.9-3.2,1.4-5,1.3
		C289.5,234.2,288,234.2,287,232.8z"/>
	<path fill="#FCFCFC" d="M368.2,263.1c-0.5,0.3-0.9,0.6-1.4,0.9c-1.5,1.4-2.4,4.1-5.3,2.7c-0.7-1.2-0.8-2.4-0.5-3.7c1-2.2,2-4.4,5-4
		c0.3,0.1,0.6,0,0.9-0.1c1.4,1.2,2.9,2.4,4.3,3.6C370.4,263.6,369.3,263.1,368.2,263.1z"/>
	<path fill="#080808" d="M521.1,351.1c2.3,0,4.5,0,6.8,0c0.9,3,0.2,4.3-3.4,4.3C520.9,355.4,520.2,354.1,521.1,351.1z"/>
	<path fill="#FEFEFE" d="M419,304.3c-6.1,7.9-12.8,15.3-21.2,20.8c-3.5-0.8-5.7-3.2-7.3-6.2c0.4-2.7,2.6-4.1,4.3-5.8
		c4-4.1,8.1-8.3,12.3-12.2c1.3-1.3,2.6-3.3,5-1.8C414.4,300.7,416.7,302.5,419,304.3z"/>
	<path fill="#070707" d="M411.9,298.1c-1.3-0.8-2.5-1.6-3.8-2.4c-0.3-0.1-0.4-0.3-0.3-0.5c0.1-0.2,0.2-0.3,0.3-0.3
		c0.6,0,1.3,0,1.9,0C411.4,295.6,412,296.6,411.9,298.1z"/>
	<path fill="#FED424" d="M530.1,434c0-5,0-10,0-15c15.1-14.9,30.1-29.8,45.2-44.7c1.5-1.5,3.2-2.9,4.8-4.3c0,5,0,10,0,15
		c-1.2,2-2.6,3.8-4.3,5.4c-13.4,13.3-26.7,26.7-40.1,40C534.1,432,532.9,434.3,530.1,434z"/>
	<path fill="#F3CC26" d="M530.1,434c15.2-15,30.3-30.1,45.5-45.1c1.4-1.4,3-2.6,4.4-3.9c0,1.7,0,3.3,0,5c-7.3,7.2-14.7,14.3-22,21.5
		c-9.3,9.2-18.6,18.3-27.9,27.5C530.1,437.3,530.1,435.7,530.1,434z"/>
	<path fill="#010101" d="M183.8,351.2c0.1,2.9,0.2,5.9,0.3,8.8c0.2,0.4,0.1,0.6-0.3,0.8c-4.9,0-9.9,0-14.8,0c3-3.2,6-6.4,8.9-9.6
		C179.9,351.2,181.9,351.2,183.8,351.2z"/>
	<path fill="#F4F4F4" d="M169,180c-1.5,2.4-3.6,4.2-5.8,6c-0.1-2-0.1-4-0.2-6C165,180,167,180,169,180z"/>
	<path fill="#FEFEFE" d="M571.9,498c0,2.3,0,4.6,0,7c-2.3,0-4.6,0-6.9,0C566.9,502.2,569.3,500,571.9,498z"/>
	<path fill="#539F49" d="M499.8,390c0,5,0,10,0,15c-0.8,1.9-2.1,3.4-3.5,4.8c-10.9,10.9-21.8,21.8-32.8,32.7
		c-1.4,1.4-2.8,2.9-4.8,3.4c-2.8,0.4-6-0.2-7.6,3.2c-0.5,0.3-0.9,0.2-1.2-0.2l0,0c-1.3-2.8,0-5.8-0.8-8.7c0.1-2.2,1.8-3.5,3.2-4.9
		c14.2-14.2,28.3-28.4,42.5-42.5C496.3,391.6,497.4,389.6,499.8,390z"/>
	<path fill="#539F49" d="M499.8,410c0,5,0,10,0,15c-4.3,6.9-11,11.6-16.3,17.6c-1.1,1.2-2.7,1.9-3.1,3.7c-0.3,1.2-0.5,2.5-1.6,3.3
		c-1.8,0.9-3.6,0.9-5.4,0.1c-1.2-0.7-1.3-2.1-1.9-3.2c-6.6-3.5-6.6-3.5-0.7-9.4c7.9-7.9,15.9-15.9,23.9-23.8
		C496.1,411.8,497.2,409.7,499.8,410z"/>
	<path fill="#529A48" d="M499.8,390c-13.6,13.4-27.1,26.9-40.7,40.3c-2.9,2.9-6,5.8-9,8.6c-1.7-1.2-0.5-2.8-0.6-4.2
		c0.3-2.2,1.9-3.4,3.3-4.8c13.7-13.7,27.3-27.3,41-41c1.5-1.5,3.2-2.9,5.1-3.9c0.3,0,0.7,0,1-0.1C499.9,386.7,499.9,388.4,499.8,390
		z"/>
	<path fill="#529A48" d="M499.8,410c-10.8,11.3-21.7,22.5-32.6,33.8c1.2,1.2,4.2-1.2,5.7,1.3c-2.7,1.6-6.6,0.9-8.2,4.4
		c-2,0.9-4,0.9-5.9-0.3c-1-1.4-1-2.9,0.1-4.3c10.4-9.1,19.6-19.4,29.5-28.9c3.8-3.7,7.6-7.4,11.5-11.1
		C499.9,406.7,499.8,408.4,499.8,410z"/>
	<path fill="#529E48" d="M499.8,430c0.1,4.9,0.2,9.8,0.3,14.7c-2,2.1-5.8,1.5-7.1,4.7c-2,1.1-4.1,1-6.3,0.3c-1.8-1-1.1-2.7-1.2-4.2
		c0-0.7-0.3-1.5,0.1-2C489.3,438.1,493.4,432.8,499.8,430z"/>
	<path fill="#519847" d="M499.8,430c-4,3.9-8,7.9-12.1,11.7c-1.2,1.1-1.3,2.2-0.8,3.5c-2.7,1.7-5.3,1.6-7.9-0.3
		c7-6.6,13.9-13.3,20.9-19.9C499.9,426.7,499.8,428.4,499.8,430z"/>
	<path fill="#0E130D" d="M500.8,445.3c0.1,0.9,0.1,1.8,0.2,2.7c0.3,1.1-0.5,1.5-1.3,1.9c-2.3,0.4-4.6,1-6.5-1.1c-1-7,4.4-3.1,7-4.1
		C500.2,445,500.5,445.2,500.8,445.3z"/>
	<path fill="#191919" d="M437.1,445.2c2.6-0.8,5.3-0.8,7.9-0.1c0.9,4.5-2.4,3.8-5,4.1c-1-0.4-2.3,0-3-1.1
		C437,447,437,446.1,437.1,445.2z"/>
	<path fill="#171717" d="M423,447c1.7-4.5,5.2-1.8,8-2c-0.3,1.3,0.9,3.6-1.1,3.7C427.6,448.8,424.5,450.6,423,447z"/>
	<path d="M301,488.8c3,0.1,5.9,0.2,8.9,0.2c0,2,0,4,0,5.9c-3.3,3-6.6,6-9.9,9C300.1,498.9,298.3,493.7,301,488.8z"/>
	<path fill="#CCE1EF" d="M299,450.1c-1.7,0-3.4,0-5,0c-1.4-0.2-2.9,0.4-4-0.9c0.5-0.8,1.3-1.1,2.2-1.3c2-0.4,4-0.2,6-0.2
		c2.6-0.1,5.1-0.1,7.7,0c2,0,4-0.1,6,0c2.5,0,5.1,0,7.6,0c0.6,0,1.1,0,1.7,0c1.7,0,3.3-0.1,5,0c2.5-0.1,5-0.1,7.5,0
		c2,0.1,4-0.2,5.8,0.9c0.2,0.2,0.4,0.4,0.6,0.6c-0.3,0.3-0.7,0.6-1,1c-1.7,0-3.4,0-5,0c-5,0-10,0-15,0c-1.7,0-3.4,0-5,0
		C309,450,304,450.1,299,450.1z"/>
	<path fill="#FCFCFC" d="M481,504c-5,2.1-10,0.4-15.3,0.6c5-5.5,9.6-11.1,15.4-15.5c0,0,0.1,0.1,0.1,0.1
		C481.6,494.1,481.9,499.1,481,504z"/>
	<path fill="#080808" d="M481,504c0.1-4.9,0.1-9.9,0.2-14.8c0.3,0,0.6,0,0.8,0.1c-0.6,5.6,1.4,11.3-1.1,16.7
		C480.9,505.3,480.9,504.7,481,504z"/>
	<path fill="#F05A29" d="M214,448.9c-1.3,0.1-2.7,0.1-4,0.2c-2.1-2.7-1.2-5.9-1.1-8.9c0.5-1.9,1.8-3.1,3.1-4.4
		c14.3-14.3,28.6-28.7,43.1-42.9c1.4-1.4,2.7-4.9,5.8-1.8c0.8,4.3,0.6,8.6,0.2,12.9c-0.6,2.2-2.3,3.6-3.8,5.1
		c-10.5,10.6-21.1,21.1-31.7,31.7c-2.2,2.3-4.5,4.5-8,4.6C215.1,445.3,215.3,447.8,214,448.9z"/>
	<path fill="#F05A29" d="M228,448.9c-1.7,0-3.3,0-5,0c-1.4-1.7-0.7-3.2,0.5-4.4c10.9-11.3,22.1-22.4,33.4-33.4c1.1-1,2.6-2.6,4-0.1
		c0.8,4.3,0.6,8.6,0.2,13c-1.9,4.3-5.8,6.7-8.8,10c-2.8,3-5.8,5.9-8.8,8.8c-2.6,2.6-4.7,5.9-9.5,2.8
		C231.3,443.8,229.3,446.4,228,448.9z"/>
	<path fill="#F05A29" d="M259.8,410c-11.8,11.6-23.5,23.3-35.3,34.9c-1.2,1.1-1.7,2.4-1.5,4c-0.4,0-0.7,0-1.1,0
		c-2.3-3.1-4.5-3.3-6.8,0c-0.4,0-0.8,0-1.2,0c-0.5-3.4,0.4-5.5,4.5-5c2.5,0.4,3.8-1.7,5.3-3.2c12-11.9,24.1-23.8,36.1-35.7
		C261.5,406.7,261.5,408.3,259.8,410z"/>
	<path fill="#ED5828" d="M257,448.9c-2,0-4,0-6,0c-1.1-0.8-1-2.7-2.2-3.2c-4.5-1.8-2.6-4-0.5-6.2c2.5-2.6,5.1-5.3,7.8-7.7
		c1.2-1.1,2.4-3.1,4.5-1.3c1.8,3.8-0.4,8.1,1.5,11.9c0.9,0.8,2.3,1.2,2,2.8C261.9,446.7,258.6,446.2,257,448.9z"/>
	<path fill="#F05A29" d="M259.8,430c-4.2,4.5-8.4,9-12.6,13.5c2.7,0.2,4.6,1.9,3.7,5.4c-0.4,0-0.8,0-1.2,0c-2.2-3.4-4.5-3.1-6.7,0
		c-2.4,0-4.8,0-7.2,0c-2.3-3.2-4.5-3.3-6.8,0c-0.4,0-0.8,0-1.1,0c0.2-4.5,5.1-7.4,8.1-4.3c2.6,2.7,3.1,0.6,4.3-0.5
		c6.5-6.3,13-12.7,19.5-19.1C261.5,426.7,261.5,428.3,259.8,430z"/>
	<path fill="#0E0704" d="M215.2,448.9c-0.9-3.3,0.3-4.3,3.6-4.3c3.5,0,3.9,1.5,3.1,4.3C219.7,448.9,217.4,448.9,215.2,448.9z"/>
	<path fill="#0C0402" d="M229.1,448.9c-0.8-2.7-0.4-4.3,3.1-4.3c3.4,0,4.6,1,3.7,4.3C233.6,448.9,231.4,448.9,229.1,448.9z"/>
	<path fill="#0C0502" d="M243.1,448.9c-0.8-2.8-0.3-4.2,3.1-4.3c3.3,0,4.6,1,3.6,4.3C247.6,448.9,245.3,448.9,243.1,448.9z"/>
	<path fill="#0E0B09" d="M257,448.9c-1.6-7,4.1-3,6.3-4.3c2,1.2,1.3,2.7,0.5,4.3c-0.9,0.1-1.8,0.1-2.8,0.2
		C259.7,449,258.3,449,257,448.9z"/>
	<path fill="#FEFEFE" d="M385,505c1.3-2,2.9-3.7,5-5c0.4,1.7,0.4,3.3,0,5C388.4,505,386.7,505,385,505z"/>
	<path fill="#FEFEFE" d="M205,505c0.6-1.3,1.5-2.2,2.8-2.9C208.2,504.4,207.2,505.2,205,505z"/>
	<path fill="#539F49" d="M450.2,394c0-7.3,0-14.6,0-21.9c0.4-0.3,0.8-0.4,1.3-0.3c1.6,0.5,2.9,1.4,3.7,2.9c2.8,1.8,5.6,3.5,8.8,4.4
		c0.4,0.3,0.6,0.7,0.6,1.2C460.7,385.8,456.7,391.2,450.2,394z"/>
	<path fill="#121212" d="M479.1,351.1c2,0,4-0.1,5.9-0.1c1.3,0,1.6,0.9,1.6,2c0,0.8,0.1,1.9-1,2c-2,0.2-4.1,0.6-5.9,0
		C478.1,354.5,479.2,352.5,479.1,351.1C479.1,351.1,479.1,351.1,479.1,351.1z"/>
	<path fill="#0A0A0A" d="M499.9,351c1,2.6,0.9,4.3-2.8,4.3c-3.2,0-5.2-0.4-4-4.2c0.3,0,0.6,0,0.8-0.2c1.7,0,3.3,0,5,0
		C499.3,351.1,499.6,351.1,499.9,351z"/>
	<path fill="#010101" d="M498,325.9c-1.1,0.3-2.2,0.7-3.3,1c-1.2,1.5-2.9,1.4-4.6,1.5c-2.1-0.1-4.3,0.2-6.3-0.6
		c-1.7-1-1.1-2.3-0.2-3.3c4.2-4.3,7.8-9.4,13.4-12.3c1.1-0.4,2.2-0.7,3.3-1.1c5.5-0.2,10.3-3.1,15.5-4.2c0.7,0.4,0.8,1,0.2,1.6
		C510,314.3,504.5,320.6,498,325.9z"/>
	<path fill="#0D0D0D" d="M527.8,448.9c-2.2,0-4.4,0-6.7,0c-0.9-3-0.3-4.4,3.3-4.3C528.1,444.6,528.8,445.9,527.8,448.9z"/>
	<path fill="#FEFEFE" d="M526.1,443.7c0.9-0.9,1.9-1.8,2.8-2.7C529.2,443.2,528.4,444.3,526.1,443.7z"/>
	<path fill="#010101" d="M465.2,325.9c-0.1-0.2-0.2-0.5-0.3-0.7c3.7-4,7.4-8,11.1-12.1c0.7-0.1,1.3-0.2,2-0.3c4,0.4,8,0.4,12,0
		c0.3,0.1,0.7,0.2,1,0.3c0.4,2.4-1.5,3.6-2.9,4.8c-3.4,3.3-6.4,7.2-10.5,9.8c-0.5,0.2-1,0.3-1.5,0.4
		C472.3,328.2,468.5,328.2,465.2,325.9z"/>
	<path fill="#539F49" d="M468,381.1c0.3-0.1,0.7-0.1,1-0.2c2.7,1.4,5.6,2.1,8.7,2.2c0.8,0.3,1.5,0.6,2.3,1c0.5,2-1,3-2.2,4.2
		c-7.8,7.9-15.6,15.7-23.5,23.5c-1.1,1.1-2.2,2.6-4.2,2.2c0-5,0-10,0-15C455.1,392,461,386.1,468,381.1z"/>
	<path fill="#0A0A0A" d="M514,351c1,3.1,0.1,4.3-3.4,4.3c-3.6,0.1-4.3-1.3-3.5-4.3C509.4,351.1,511.7,351,514,351z"/>
	<path fill="#0F0F0F" d="M235.8,263.1c0.2,1.4,1.2,3.4-0.4,4c-1.7,0.6-4,0.6-5.7,0c-1.6-0.6-0.7-2.6-0.4-4
		C231.4,263.1,233.6,263.1,235.8,263.1z"/>
	<path fill="#0F0F0F" d="M247,262.9c0.9,0.1,1.9,0.1,2.8,0.2c0.2,1.4,1.1,3.4-0.5,4c-1.7,0.6-3.9,0.3-5.8,0
		c-1.1-0.2-0.9-1.7-0.6-2.6C243.5,262.1,245.7,263.7,247,262.9z"/>
	<path fill="#050505" d="M478,326.9c4.3-4.6,8.7-9.2,13-13.7c2-0.3,4-0.6,6-0.9c-4.7,4.9-9.3,9.8-14,14.7
		C481.3,328.5,479.6,328.5,478,326.9z"/>
	<path fill="#24ADB1" d="M420.1,347c0,2,0,4,0,6c-1,0.7-1.3,2.3-2.9,2.2c-0.4-0.2-0.7-0.6-0.9-0.9c-2.7-3.2-4.7-2.7-6.3,1
		c-0.5,1.3-1.3,2.3-2.3,3.2c-11.1,11.2-22.2,22.3-33.4,33.4c-1.2,1.2-2.7,4.2-5.1,1.1c-0.8-4.3-0.6-8.6-0.2-12.8
		c1-3,3.5-4.7,5.6-6.8c4.6-4.7,9.4-9.3,14-14.1c2.9-3,5.7-5.4,10.3-4.5c1.1,0.2,3.7,1,2.9-2c-0.9-0.6-2.1-0.7-2.9-1.5
		c-0.5-2.2,1.1-3.3,2.4-4.6c3-2.9,5.6-6.1,8.8-8.7c0.6,0.4,1.3,0.8,1.9,1.2c1.7,2.3,3.7,4.2,6,5.9
		C418.7,345.7,419.4,346.3,420.1,347z"/>
	<path fill="#24ADB1" d="M400,328c0.6,0.4,1.3,0.8,1.9,1.2c2,2,4,3.9,6,5.9c0.4,0.6,0.8,1.3,1.2,1.9c-4.9,5.3-10.2,10.2-15.2,15.3
		c-1.9,2-3.8,2.3-5.9,0.3c-1.6-0.4-3.2-0.6-4.8,0.2c-0.9,2.9,1.7,1.8,2.6,2.1c2,0.7,3.1,1.7,1.6,3.5c-4.7,5.5-9.8,10.7-15.4,15.3
		c-1,0.8-2.2,0.8-2.8-0.6c-0.9-4.3-0.6-8.6-0.2-12.9c1.2-4.3,5.4-6,8.1-9.1C384.2,343,392.1,335.4,400,328z"/>
	<path fill="#26A7AA" d="M388.9,351.1c1.1,1.6,2,3,4.1,0.6c3.7-4.1,7.8-8,11.8-11.9c1.3-1.2,2.3-2.8,4.4-2.8
		c0.3,0.3,0.6,0.6,0.9,0.9c-1,4.2-5,5.9-7.4,9c-1.1,1.4-2.4,2.7-3.6,4c-0.2,0.8-1.1,1.4-0.5,2.2c0.6,0.8,1.5,0.5,2.3,0.1
		c0.9-0.5,1.4-1.4,2-2.1c2.1,3,1.7,5.6-2.3,4.8c-6-1.2-9.1,2-12.6,5.7c-5.8,6-11.8,11.7-17.8,17.5c-1.6-1.7-1.6-3.3,0-5
		c5.6-5.9,11.1-11.8,16.9-17.8c-2-1-8.8,1.8-4.9-5.1C384.3,354.3,386.6,354.4,388.9,351.1z"/>
	<path fill="#24ADB1" d="M390.2,318.7c0.3,0.1,0.6,0.1,0.9,0.1c2.2,2.1,4.5,4.2,6.7,6.3c0.4,0.6,0.8,1.3,1.2,1.9
		c-7.4,7.9-15.2,15.3-22.9,23c-0.8,0.8-1.7,1.6-2.9,1.9c-1.4,0.2-2.7,0.1-3.7-1c-1.5-3.5-0.8-7.1-0.6-10.7c1.4-3.7,4.6-5.9,7.3-8.5
		C380.8,327.3,384.6,322,390.2,318.7z"/>
	<path fill="#26A7AA" d="M374,350.9c7.5-7.6,14.9-15.1,22.4-22.7c0.7-0.8,1.6-1.1,2.7-1.2c0.3,0.3,0.7,0.7,1,1
		c0,1.5-0.9,2.4-1.8,3.4c-7.4,8.2-16.4,14.9-22.9,24c-1,1.4-3.4,2.4-5.2,3.6c-1.2-0.7-1.5-1.9-1.6-3.1c0-0.5,0.2-0.9,0.5-1.3
		C370.8,353.6,373.8,354,374,350.9z"/>
	<path fill="#F05A29" d="M210.1,334c0-5.7,0-11.3,0-17c5.6-4.3,11.3-8.7,16.9-13c8.2-4.3,15.9-9.5,25-12.1c0.6,2.3-1.2,3.3-2.4,4.6
		c-11.6,11.7-23.3,23.4-35,35C213.4,332.7,212.3,334.5,210.1,334z"/>
	<path fill="#F05A29" d="M210.1,334c14.3-13.7,28.4-27.6,41.9-42c1-0.6,2-1.2,3-1.8c1.6-0.4,3.2-0.7,4.9-1.1
		c0.3,0.2,0.4,0.5,0.4,0.8c0,0.3-0.1,0.5-0.2,0.5c-0.7,1.7-2.2,2.9-3.5,4.2c-13.6,13.7-27.3,27.4-41,41c-1.6,1.5-2.7,4-5.6,3.5
		C210.1,337.3,210.1,335.7,210.1,334z"/>
	<path fill="#191919" d="M278.2,266c-2.5,2.6-5.3,1.4-8.1,0.7c0.1-2.1,0.3-4.1,3.3-3.6C275.4,263.4,278.4,262,278.2,266z"/>
	<path fill="#191919" d="M287,262.9c1.1,0.1,2.3,0.2,3.4,0.2c1.3,0.1,1.5,1,1.6,2c0,1,0.1,2.3-1.3,2.2c-2.3-0.2-4.9,1.3-6.8-1.3
		C284,264,284.9,262.9,287,262.9z"/>
	<path fill="#1B1B1B" d="M306,266.9c-2.6,0.7-5.3,0.8-7.9,0c-0.6-3.2,1.1-4.2,4-4.1c1.2,0.1,2.5,0.1,3.7,0.2
		C305.8,264.4,305.9,265.7,306,266.9z"/>
	<path fill="#131313" d="M431.2,353c-1.8,4.5-5.2,1.7-8,1.7c0.5-1.3-0.7-3.9,2-3.6C427.1,351.5,430.2,349.1,431.2,353z"/>
	<path fill="#131313" d="M439,350.9c0.3,0.1,0.7,0.1,1,0.2c1.6,0.7,4.2-1.5,4.9,1.7c0.2,0.9,0.3,2.5-0.9,2.4c-2.4-0.2-5.8,2.2-7-2.1
		C437.1,351.8,437.7,351,439,350.9z"/>
	<path fill="#E6E6E6" d="M362.3,267c-0.4,0.4-0.8,0.8-1.2,1.2c-1.8,0.7-3.5,1.5-5.3,0.1c-0.6-0.1-1.2-0.2-1.8-0.3
		c-0.3-0.4-0.3-0.9,0-1.3c2.3-1.3,5.5-0.7,6.8-3.6c0.4-0.1,0.8-0.2,1.2-0.2C362.1,264.2,362.2,265.6,362.3,267z"/>
	<path fill="#0372BC" d="M290.1,294c-0.1-2.8,0-5.5-0.2-8.3c-0.2-2,0.7-3,2.4-3.6c3.2,0,6.5,0,9.7,0
		C299.6,287.7,295.7,291.7,290.1,294z"/>
	<path fill="#046EB4" d="M290.1,294c4.3-3.6,8.2-7.6,11.9-11.8c0.3-0.1,0.7-0.2,1-0.3c1.3,0.1,2.7,0.2,4,0.4
		c0.4,1.6-0.6,2.5-1.5,3.4c-3.9,4.1-7.9,8.1-12,12c-0.9,0.9-1.9,2-3.4,1.4C290,297.3,290.1,295.7,290.1,294z"/>
	<path fill="#191919" d="M320,264c-0.6,6.4-5.1,2.5-8,3C312.4,262.5,313.7,262.1,320,264z"/>
	<path fill="#539F49" d="M450.2,434c0-5,0-10,0-15c0.4-0.7,0.6-1.6,1.2-2.2c10.4-10.7,20.8-21.5,31.8-31.6c0.2-0.2,0.6-0.3,0.9-0.4
		c5,0.1,9.9,0.2,14.9,0.3C483.1,401.7,466.7,418,450.2,434z"/>
	<path fill="#529A48" d="M484.1,384.8c-10.8,11.9-22.3,23.1-33.9,34.2c0-1.7,0-3.3,0-5c10.2-9.6,20.2-19.6,29.8-29.8
		C481.4,384,482.8,383.9,484.1,384.8z"/>
	<path fill="#24ADB1" d="M381,310c2.3,2,4.7,4,7,6c0.1,0.3,0.1,0.6,0.2,0.9c-4.3,6.5-10.3,11.3-15.9,16.6c-1,0.9-2.4,1.3-3.2-0.5
		c-0.8-4.3-0.6-8.7-0.2-13c2.9-4.3,5.6-8.7,11.1-10C380.4,310,380.7,310,381,310z"/>
	<path fill="#26A7AB" d="M370.1,334c6-5.7,12.1-11.4,18.1-17.1c0.6,0.6,1.3,1.2,1.9,1.8C384,326,377.1,332.6,370,339
		C368.6,337.3,368.5,335.7,370.1,334z"/>
	<path fill="#0071BB" d="M290.1,334c0-5,0-10,0-15c0.6-0.8,0.8-1.9,1.5-2.6c11.1-11,21.7-22.5,33.4-32.9c0.7-0.2,1.4-0.1,2.1,0.3
		c3.3,0.8,6.7,1.6,10,2.4c1.3,2.2-0.6,3.4-1.8,4.6c-13.6,13.7-27.3,27.4-41,41C293.1,333,292.1,334.5,290.1,334z"/>
	<path fill="#046EB4" d="M290.1,334c15.3-15.2,30.6-30.3,45.9-45.5c0.5-0.5,0.7-1.4,1-2.2c0.3-0.1,0.6-0.1,0.9-0.2
		c0.6,0.5,1.6,0.2,2,1c0,1-0.1,2-0.1,3c-0.8,1.9-2,3.4-3.5,4.8c-13.8,13.8-27.6,27.6-41.5,41.4c-1.3,1.3-2.4,3.3-4.9,2.8
		C290,337.3,290.1,335.7,290.1,334z"/>
	<path fill="#1B1B1B" d="M347.8,266.7c-6.9,1.8-7.9,1.4-7.6-3.6c0.6-0.1,1.2-0.1,1.8-0.2c1.7,0,3.3,0.1,5,0.1
		C347.3,264.3,347.5,265.5,347.8,266.7z"/>
	<path fill="#101010" d="M360.8,263.1c1.6,7.9-4.4,2.9-6.9,4c-0.5-1.4-0.9-2.7,0.3-4C356.4,263.1,358.6,263.1,360.8,263.1z"/>
	<path fill="#F0F0F0" d="M354.2,263.1c-0.1,1.3-0.2,2.7-0.3,4c0,0.3,0,0.6,0,0.9C352.6,266.2,352.3,264.6,354.2,263.1z"/>
	<path fill="#0071BB" d="M290,299c6-5.2,11.6-10.9,16.9-16.8c0.3-0.1,0.7-0.2,1-0.3c4.3,0.5,8.6,0.9,13,1.4c0.4,2-1.1,3-2.2,4.2
		c-8.1,8.2-16.3,16.4-24.5,24.5c-1.1,1.1-2.1,2.6-4.2,2.1C290.1,309,290,304,290,299z"/>
	<path fill="#046EB4" d="M290.1,314c10.7-9.9,20.8-20.3,30.9-30.8c0.3-0.1,0.7-0.2,1-0.3c1,0.4,2,0.7,3,1.1
		c-11.2,12.1-22.9,23.7-35,35C290,317.3,290.1,315.7,290.1,314z"/>
	<path fill="#191919" d="M325.9,264c0.4-0.4,0.8-0.7,1.1-1.1c0.7,0.1,1.3,0,2,0.2c1.6,0.5,4.2-1.4,4.8,1.9c0.3,2.1-1,2.5-2.7,2.4
		C328.6,267.3,325.4,268.5,325.9,264z"/>
	<path fill="#27AEB2" d="M370.1,314c0-4,0.1-7.9,0.1-11.9c2.6,1.7,5.1,3.5,7.7,5.2c0,0.2,0,0.5,0,0.7
		C375.5,310.3,374,313.8,370.1,314z"/>
	<path fill="#27A8AB" d="M370.1,314c3-1.5,4.1-5.3,7.8-6c1,0.3,1.8,1,2.3,1.9c-3.4,3-6.7,6-10.1,9.1
		C370.1,317.3,370.1,315.7,370.1,314z"/>
	<path fill="#111111" d="M262,262.9c3,0.3,1.8,2.5,2,4.2c-1.3,0.1-2.6,0.2-3.9,0.3c-3.7,0.4-4.3-1.3-3-4.4
		C258.8,263,260.4,263,262,262.9z"/>
	<path fill="#131313" d="M194,351c0.3,1,0.6,2,0.9,3c-0.2,0.2-0.3,0.4-0.1,0.7c-2.6,1-5.2,0.6-7.8,0.3
		C186.2,348.2,191.6,352.2,194,351z"/>
	<path fill="#091008" d="M458.8,448.8c-2.6,0-5.1,0-7.7,0c-0.3-7.2,4.9-3,7.8-3.8C458.9,446.3,458.9,447.5,458.8,448.8z"/>
	<path fill="#070E07" d="M472.8,448.8c-2.5,0-5.1,0-7.6,0c-0.3-7.3,4.9-3.1,7.8-3.6C472.9,446.4,472.8,447.6,472.8,448.8z"/>
	<path fill="#091008" d="M486,448.9c-2.3,0-4.6,0-6.9,0c0-1.3-0.1-2.6-0.1-3.9c2.6-0.2,5.3-0.5,7.9,0.3
		C486.6,446.5,486.3,447.7,486,448.9z"/>
	<path fill="#24ADB1" d="M420,370c0,5,0,10,0,15c-1.1,1.6-2.1,3.3-3.5,4.7c-13.9,13.8-27.7,27.6-41.5,41.5c-1.2,1.2-2.3,2.4-3.9,3
		c-1.1,0.3-1.5-0.3-1.5-1.3c-0.1-4.2,0.3-8.4-0.2-12.6c0-1.9,1.3-3,2.4-4.2c14.7-14.7,29.4-29.4,44.1-44.1
		C417,370.9,418,369.3,420,370z"/>
	<path fill="#24ADB1" d="M420,390c0,5,0,10,0,15c-1.2,2-2.6,3.8-4.2,5.4c-11.4,11.3-22.7,22.7-34.1,34c-2.4,2.4-4.6,5.6-8.1,1.1
		c-0.8-1-2.9-0.3-4-1.7c-0.2-1.5-0.3-2.9-0.4-4.4c0.5-1.9,2-3,3.3-4.3c14.1-14.1,28.1-28.2,42.2-42.2
		C416.2,391.6,417.4,389.5,420,390z"/>
	<path fill="#24ADB1" d="M417.1,355.1c0.9-0.8,1.3-2.2,2.9-2.1c0,4,0,8,0,12c-1.1,1.6-2.1,3.3-3.5,4.7
		c-13.9,13.8-27.6,27.7-41.6,41.4c-1.4,1.4-2.7,4.8-5.8,2c-0.8-3.6-0.6-7.3-0.2-11c0.6-2.1,2.5-2.9,3.9-4.3
		c13.9-13.9,28.2-27.5,41.5-42C415.2,355.2,416.1,355,417.1,355.1z"/>
	<path fill="#24ADB1" d="M395,448.9c-1.7,0-3.3,0-5,0c-0.3-0.4-0.6-0.8-0.9-1.2c-3.3-5.7-3.3-5.7,1.4-10.4
		c8.1-8.1,16.1-16.2,24.2-24.2c1.4-1.4,2.6-3.6,5.2-3.1c0,5,0,10,0,15c-4.9,7.2-11.6,12.7-17.9,18.7
		C400.1,445.7,395.8,445,395,448.9z"/>
	<path fill="#26A7AB" d="M420,390c-8,7.8-16,15.6-23.9,23.4c-8.7,8.5-17.3,17.1-26,25.6c-1.6-1.7-0.9-3.3,0-5
		c15.1-15,30.3-30.1,45.5-45.1c1.4-1.4,3-2.6,4.4-3.9C420,386.7,420,388.3,420,390z"/>
	<path fill="#26A7AB" d="M370.2,414c15.1-15,30.3-30.1,45.5-45.1c1.4-1.4,3-2.6,4.4-3.9c0,1.7,0,3.3,0,5c-8,7.8-16,15.6-23.9,23.4
		c-8.7,8.5-17.3,17.1-26,25.6C368.5,417.3,368.5,415.7,370.2,414z"/>
	<path fill="#26A7AA" d="M420,410c-10.8,10.6-21.5,21.2-32.3,31.8c-0.6,0.5-2,1.7-0.2,2.1c3.5,0.6,2.1,3.1,2.4,5c-0.4,0-0.7,0-1.1,0
		c-2.3-3.2-4.6-3.1-6.9,0c-2.4,0-4.7,0-7.1,0c-1.3-2.8-4.8-2-6.5-4.2c0-0.3,0.2-0.5,0.6-0.7c0.3-0.5,0.6-0.5,0.9-0.1
		c2.5,0.4,6.1-1.3,6.3,3.4c2.1-0.4,3-2.2,4.3-3.4c13.3-12.9,25.8-26.4,39.5-38.9C420,406.7,420,408.3,420,410z"/>
	<path fill="#24ACB0" d="M420,449c-1-0.1-2-0.1-3.1-0.2c-3.7-3.5-4.2-3.5-7,0c-2,0-3.9,0-5.9,0c-1.5-1.7-1.1-3.5,0.2-4.9
		c4.2-4.8,8.7-9.3,13.6-13.6c0.6-0.5,1.4-0.8,2.3-0.4C420,436.3,420,442.7,420,449z"/>
	<path fill="#26A7AB" d="M420,430c-4.9,4.8-9.8,9.5-14.8,14.3c-1.4,1.3-1.2,2.9-1.2,4.6c-0.4,0-0.7,0-1.1,0c-2.3-3.3-4.6-2.9-6.9,0
		c-0.3,0-0.7,0-1,0c-0.2-2.8-0.2-5.4,3.9-5c2.1,0.2,3.1-1.6,4.4-2.8c5.7-5.3,10.6-11.3,16.7-16.2C420,426.7,420,428.3,420,430z"/>
	<path fill="#529A48" d="M468,381.1c-5.6,6.3-11.6,12.2-17.8,17.8c0-1.7,0-3.3,0-5c4.9-4.5,9.8-8.9,13.9-14.2
		C465.4,380.3,466.7,380.7,468,381.1z"/>
	<path fill="#031010" d="M409.9,448.9c-0.8-2.3-1.2-4.2,2.3-4.2c3,0,5.8-0.2,4.7,4.2C414.6,448.9,412.2,448.9,409.9,448.9z"/>
	<path fill="#050B0B" d="M396,448.9c-0.7-2.7-0.2-4.2,3.2-4.3c3.3,0,4.5,1,3.7,4.2C400.6,448.9,398.3,448.9,396,448.9z"/>
	<path fill="#040909" d="M368.5,444.7c2.4,1.1,7.8-2.6,6.5,4.2c-1.7,0.1-3.3,0.2-5,0.3C366.9,448.5,367.6,446.6,368.5,444.7z"/>
	<path fill="#020909" d="M382,448.9c-0.7-2.7-0.2-4.2,3.2-4.2c3.3,0,4.5,1,3.7,4.2C386.6,448.8,384.3,448.9,382,448.9z"/>
	<path fill="#171716" d="M278.2,446c0.2,2.4-1,3.2-3.2,3.1c-1-0.1-1.9-0.2-2.9-0.2c-1.2,0-1.7-0.7-1.7-1.9c0-1-0.1-2.3,1.2-2.2
		C273.8,444.9,276.4,443.3,278.2,446z"/>
	<path fill="#181818" d="M343.9,444.7c1.4-0.1,2.7-0.1,3.9,0.7c-0.2,6.2-5.2,2.4-7.7,3.8c0,0,0-0.3,0-0.3
		C338.8,444.8,339.1,444.5,343.9,444.7z"/>
	<path fill="#0E0E0E" d="M354.2,448.9c-1.2-3.8,0.7-4.3,3.9-4.3c3.7,0,3.6,1.8,2.7,4.3l-0.4,0l-0.4,0.2c-1.7,0-3.3,0-5,0
		C354.8,448.9,354.5,448.8,354.2,448.9z"/>
	<path fill="#1F2224" d="M291.8,448.9c-0.6,0.1-1.3,0.2-1.9,0.3c-2.1-0.9-5.9,1.5-6-3.2c0.2-0.3,0.3-0.5,0.2-0.9
		c1.6-1,3.3-1.3,5.1-0.7C292.9,444.3,293.6,445.8,291.8,448.9z"/>
	<path fill="#FEFEFE" d="M288.9,441c0,0.9-0.1,1.8-0.1,2.7c-0.9,1-1.8,1.1-2.7,0C287,442.8,288,441.9,288.9,441z"/>
	<path fill="#B5D4E8" d="M286.1,443.7c0.9,0,1.8,0,2.7,0c0.2,0.1,0.3,0.3,0.5,0.4c0,0,0.3,0.3,0.3,0.3c-1.8,0.2-3.6,0.4-5.4,0.6
		C284.3,444,285.3,444,286.1,443.7z"/>
	<path fill="#0071BB" d="M289.6,444.5c-0.2,0-0.3-0.1-0.3-0.3c1.4-1.6,0.3-3.5,0.9-5.2c0.6-1.2,1.1-2.4,2.1-3.4
		c14.6-14.7,29.2-29.3,44-43.9c1.2-1.1,2.7-3.6,4.7-0.7c0.8,4.2,0.6,8.5,0.2,12.7c-0.4,1.7-1.6,2.9-2.8,4.1
		c-11.4,11.4-22.8,22.8-34.2,34.2c-1.4,1.4-3.3,2.3-4.5,3.8c-0.5,1-0.7,2.1-1.5,2.9c-2.1,0-4.2,0-6.3,0
		C292,446.9,292.7,444.8,289.6,444.5z"/>
	<path fill="#0070BB" d="M312.2,448.8c-2.1,0-4.3,0-6.4,0c-0.9-1-1-2.3-0.9-3.6c0.2-2.3,1.6-3.9,3.2-5.4
		c9.1-9.1,18.2-18.3,27.4-27.3c1.3-1.3,2.7-4.4,5.4-1.5c0.8,4.3,0.6,8.7,0.1,13c-5.3,7.7-12.5,13.6-19.2,20c-2.2,2.1-5.6,0.5-8,2.1
		C313.2,446.9,312.9,448,312.2,448.8z"/>
	<path fill="#0070BA" d="M343.9,444.7c-2.8-0.1-4.7,0.7-3.9,4.1c-2.1,0-4.3,0-6.4,0c-1.5-3.3-5.1-2-7.5-3.4
		c-0.4-0.3-0.6-0.8-0.7-1.3c2.7-6.2,8.1-9.8,12.9-14.1c0.8-0.7,1.9-0.4,2.5,0.7c1.2,4.4,0.4,8.8,0.1,13.2
		C341.9,444.2,342.9,444.4,343.9,444.7z"/>
	<path fill="#046EB4" d="M339.8,430c-4.9,4.4-9.7,8.9-13.9,14c-1,2.3-2.6,3.9-5,4.8c-0.4,0-0.9,0-1.3,0c-1.6-3.2-5.5-1.8-7.7-3.8
		c11.4-0.1,16.3-9.7,23.5-16c1.5-1.3,2.9-2.7,4.4-4C341.5,426.7,341.5,428.3,339.8,430z"/>
	<path fill="#020C13" d="M306,445.1c-0.1,1.3-0.1,2.5-0.2,3.8c-2.5,0-5.1,0-7.6,0c-0.1-1.2-0.1-2.5-0.2-3.7
		C300.7,444.4,303.3,442.8,306,445.1z"/>
	<path fill="#000A10" d="M326,444.9c2.8,0.8,8.1-3.4,7.7,3.9c-2.5,0-5,0-7.5,0C324.9,447.6,324.9,446.3,326,444.9z"/>
	<path fill="#010B11" d="M312,445c2.8,0.7,8.1-3.5,7.7,3.8c-2.5,0-5,0-7.6,0C312.1,447.6,312.1,446.3,312,445z"/>
	<path fill="#0071BB" d="M326,444.9c0,1.3,0.1,2.6,0.1,3.9c-1.7,0-3.4,0-5.1,0c1.4-1.9,2.9-3.6,5-4.8C326,444.3,326,444.6,326,444.9
		z"/>
	<path fill="#0C0C0C" d="M507.2,448.9c-1.2-3.7,0.6-4.4,3.9-4.4c3.8,0,3.6,1.8,2.8,4.4C511.6,448.9,509.4,448.9,507.2,448.9z"/>
	<path fill="#F05A29" d="M210.1,439c0-1.7,0-3.3,0-5c0.8-1.5,1.6-2.9,2.8-4.1c14.2-14.2,28.4-28.4,42.7-42.5
		c1.3-1.3,2.5-4.1,5.2-1.7c0.5,1.6,0.6,3.1-0.9,4.3c-15.1,15-30.2,30-45.3,45C213.1,436.4,211.6,437.7,210.1,439z"/>
	<path fill="#F05A29" d="M259.8,370c0,5,0,10,0,15c-15,14.9-30,29.7-45,44.6c-1.5,1.5-3.2,2.9-4.8,4.4c0-5,0-10,0-15
		c0.9-2,2.3-3.6,3.9-5.1c13.6-13.5,27.1-27.1,40.6-40.6C256.1,371.8,257.2,369.7,259.8,370z"/>
	<path fill="#F05A29" d="M259.8,290c0,5,0,10,0,15c-0.9,2.2-2.6,3.8-4.2,5.5c-13.6,13.6-27.3,27.3-40.9,40.9c-1.4,1.1-2.4,3-4.6,2.6
		c0-5,0-10,0-15c11.9-11.8,23.9-23.6,35.8-35.4C250.5,299.1,255.2,294.6,259.8,290z"/>
	<path fill="#F05A29" d="M260,356.1c0,3-0.1,6-0.1,8.9c-0.8,1.9-2.1,3.4-3.5,4.8c-13.8,13.8-27.5,27.6-41.4,41.3
		c-1.3,1.3-2.4,3.3-4.9,2.9c0-5,0-10,0-15c0.9-1.8,2.1-3.3,3.5-4.8c12.4-12.4,24.9-24.7,37.2-37.2
		C253.8,353.9,256.5,352.7,260,356.1z"/>
	<path fill="#F05A29" d="M259.8,330c0,5,0,10,0,15c-1.1,2.8-3.4,4.6-5.5,6.7c-1.6,1.6-3.3,1.7-5.3,0.8c-1.7-0.3-3.3-0.5-4.9,0.2
		c-1.2,2.3,0.8,2,1.8,2.3c2.8,0.8,2.4,2.3,1,4c-0.6,0.8-1.3,1.5-2,2.2c-10,10-20,20-30,30c-1.3,1.3-2.5,3.3-4.9,2.8c0-5,0-10,0-15
		c2.2-4.4,6.1-7.4,9.5-10.6c5-4.8,9.1-10.6,15.3-13.9c0.9-0.5,1-1.7,1.5-2.5c6.2-7.3,13.3-13.6,20-20.4
		C257.3,330.6,258.3,329.6,259.8,330z"/>
	<path fill="#F05A29" d="M259.8,310c0,5,0,10,0,15c-1.1,2.9-3.5,4.8-5.6,6.9c-6.8,6.5-13,13.7-20.3,19.7c-1.2,0.6-2.6,0.4-3.8,1.1
		c-3.4,9.3-11.6,14.5-18.2,21c-0.5,0.5-1.2,0.5-1.9,0.2c0-5,0-10,0-15c1.3-3.2,3.8-4.1,7.1-4.3c1.3-0.1,4,1.3,3.6-2
		c-0.6-0.6-1.4-0.9-2-1.6c-0.3-2.2,1.3-3.3,2.6-4.6c11.3-11.3,22.6-22.6,33.9-33.9C256.5,311.3,257.6,309.6,259.8,310z"/>
	<path fill="#F05A29" d="M249.9,351.1c1.2,1,2.1,1.8,3.6,0.1c2-2.2,4.3-4.1,6.4-6.1c0.1,2,0.1,3.9,0.2,5.9c-1.5,1.7-0.7,2.9,1,3.9
		c0.2,0.4,0.2,0.8-0.2,1.2l-0.4,0c0,0-0.4,0.2-0.4,0.2c-4.9-2.5-7.5,0.9-10.5,3.9c-13.1,13.1-26.3,26-39.4,39c0-1.7,0-3.3,0-5
		c12.2-12.6,24.4-25.3,36.5-37.8c-2.2-0.4-7.1,0.3-3.5-5.1C245.3,354.2,247.6,354.4,249.9,351.1z"/>
	<path fill="#F05A29" d="M210.1,414c13.1-13,26.2-26,39.4-38.9c3.4-3.4,6.9-6.7,10.4-10c0,1.7,0,3.3,0,5c-15.1,15-30.2,30-45.3,45
		c-1.4,1.4-2.9,2.7-4.4,4C210.1,417.3,210.1,415.7,210.1,414z"/>
	<path fill="#F05A29" d="M210.1,374c5.4-5.3,10.7-10.8,16.4-15.8c2.3-2.1,0.3-5.3,2.6-7.1c2.3,3.5,4.6,3.2,6.8-0.2
		c0.9-0.1,1.3,0.2,1.2,1.1c0,2.1,0,4-2.9,4.2c-1.7,0.1-2.7,1.8-3.8,3c-6.8,6.6-13.5,13.2-20.3,19.8
		C210.1,377.3,210.1,375.7,210.1,374z"/>
	<path fill="#E15729" d="M221.9,351c2.5,3.6,1.1,5.2-2.8,4.9c-3.5-0.3-6.5,0.4-9,3c0-1.7,0-3.3,0-5c1.3-1,2.6-2,3.9-3
		c0.4-0.4,0.8-0.4,1.2-0.1C217.4,354.4,219.6,354.4,221.9,351z"/>
	<path fill="#080808" d="M201,355c-0.9-6.8,4.5-2.8,6.9-4C209.2,358.7,203.4,353.9,201,355z"/>
	<path fill="#0D0D0D" d="M207.9,448.9c-2.2,0-4.4,0-6.7,0c-0.5-2.6-0.7-4.4,3.1-4.3C207.7,444.7,208.9,445.7,207.9,448.9z"/>
	<path fill="#161616" d="M191,448.9c-2-0.1-4.2,0.7-4-2.4c0.2-2.9,2.3-1.8,3.7-1.8c1.5,0,4-1.1,4,2.1
		C194.6,449.9,192.1,448.5,191,448.9z"/>
	<path fill="#131313" d="M465,354.9c-0.3-7,4.9-2.8,7.6-3.8c0.1,1.2,0.2,2.4,0.3,3.6C470.3,355.6,467.7,355.4,465,354.9z"/>
	<path fill="#0071BB" d="M290,339c10.8-10.6,21.5-21.2,32.3-31.9c5.8-5.7,11.6-11.4,17.5-17.1c0,5,0,10,0,15
		c-0.8,1.9-2.1,3.4-3.5,4.8c-13.1,13.1-26.2,26.2-39.4,39.4c-1.4,1.4-2.6,3.1-4.8,3.3c-1-0.2-1.9-0.6-2.3-1.5
		C289.9,346.9,290,343,290,339z"/>
	<path fill="#0071BB" d="M290.2,374c0-5,0-10,0-15c2-3.2,3.6-6.9,8.2-7c1.5,1.2,3,2.4,5.3,1.2c-1.1-1.6-3.1-0.6-4.3-1.7
		c-1.4-2,0.3-3.1,1.4-4.2c11.9-12,23.8-23.9,35.8-35.8c0.9-0.9,1.9-1.9,3.4-1.5c0,5,0,10,0,15c-1.2,3-3.7,5-5.9,7.2
		c-6.4,6.4-12.7,12.9-19.3,19.1c-0.9,0.7-1.7,1.5-2.3,2.4c-5.8,6.2-11.9,12.1-18,18.1C293.2,372.9,292.2,374.4,290.2,374z"/>
	<path fill="#0071BB" d="M290.2,394c0-5,0-10,0-15c1.9-4.3,5.8-6.8,8.8-10.1c2.6-2.8,5.5-5.3,8.1-8.2c3.1-3.5,6.5-6,11.2-6.6
		c0.8-1.1,0.3-2.4,0.3-3.6c5.5-7.9,12.8-14.1,19.9-20.4c0.4-0.3,0.9-0.2,1.4-0.1c0,5,0,10,0,15c-1.3,2.9-3.4,5.1-6.1,6.7
		c-1.9,1.2-5.3-0.8-6.1,2.7c1.2,2.4,0,4.1-1.6,5.7c-10.7,10.7-21.3,21.4-32,32C293,393.1,291.9,394.4,290.2,394z"/>
	<path fill="#046EB4" d="M339.8,310c-13.9,13.3-27.6,26.9-40.8,40.9c-0.1,0.6-0.5,1-1.1,1.1c-2.6,2.3-5.2,4.6-7.8,7
		c-0.1-1.2-0.1-2.3-0.2-3.5c0.1-1.6,0.9-2.7,2.2-3.5c14.3-14.2,28.7-28.4,43-42.6c1.5-1.5,3.1-2.9,4.7-4.4
		C339.8,306.7,339.8,308.4,339.8,310z"/>
	<path fill="#046EB4" d="M339.8,330c-7.2,6.7-14.2,13.6-20.8,20.9c-1.7,1.5-3.4,1.5-5-0.1c8.3-8.9,16.9-17.5,25.9-25.8
		C339.8,326.7,339.8,328.4,339.8,330z"/>
	<path fill="#046EB4" d="M333.8,351.4c1.5-2.6,3.7-4.5,6-6.3c0.1,2,0.2,4,0.3,6c0.8,1.1,0.9,2.2,0.4,3.4c-1.9,0.7-4.1-1.5-5.7,0.9
		c-0.5,0-0.9-0.2-1.2-0.6C333,353.6,332.9,352.4,333.8,351.4z"/>
	<path fill="#131313" d="M340,355c0-1.3,0.1-2.6,0.1-3.9c0.3,0,0.6,0,0.9-0.2c2.4,1,6.9-1.9,6.8,3.7c-0.1,0.6-0.4,1-0.9,1.2
		c-2.1,0.7-4.2,0.7-6.3-0.2C340.4,355.4,340.2,355.2,340,355z"/>
	<path fill="#26A7AB" d="M370.1,399c0-1.7,0-3.3,0-5c13.3-12.8,26.6-25.6,39-39.3c2.7-1.6,5.3-1.5,7.8,0.3c0,0,0.1,0.1,0.1,0.1
		c-0.7,0.3-1.4,0.7-2.2,1c-13.3,13.1-26.4,26.4-39.7,39.5C373.8,397.1,372.8,399.3,370.1,399z"/>
	<path fill="#051010" d="M417,355c-2.6,0.2-5.3,0.6-7.8-0.3c-0.3-4.3,2.7-3.5,5.3-3.7C417.8,350.8,416.9,353.2,417,355z"/>
	<path fill="#020606" d="M402.8,351.1c0,1.4,1,3.3-0.8,3.9c-1.6,0.5-3.6,0.2-5.3,0c-0.9-0.1-1-1.2-0.9-2c0-2.3,2-1.7,3.2-2.1
		C400.3,350.9,401.6,351,402.8,351.1z"/>
	<path fill="#010606" d="M388.9,351.1c0.9,3.3-0.3,4.3-3.7,4.2c-3.5,0-3.9-1.5-3.1-4.3C384.4,351,386.6,351.1,388.9,351.1z"/>
	<path fill="#050808" d="M369,350.8c0.3,0.2,0.6,0.2,0.9,0c1.4,0,2.8,0,4.1,0c3.5,6.9-2.8,3.3-4.7,4.4c-2.7-0.3-2.2-2.1-1.8-3.9
		C367.9,350.8,368.4,350.7,369,350.8z"/>
	<path fill="#F05A29" d="M215.1,351.1c-0.4,0-0.8,0-1.2-0.1c10.8-10.9,21.5-21.9,32.4-32.8c4.4-4.5,9-8.8,13.5-13.1c0,1.7,0,3.3,0,5
		c-13.9,13.3-27.5,26.9-40.8,40.8C217.8,352.2,216.5,352.1,215.1,351.1z"/>
	<path fill="#F05A29" d="M237.1,352c-0.4-0.3-0.8-0.6-1.2-1c-0.7,0.6-1.3,0.5-1.9-0.2c8.3-8.9,16.9-17.6,25.9-25.9c0,1.7,0,3.3,0,5
		C252.2,337.4,244.7,344.7,237.1,352z"/>
	<path fill="#070504" d="M261,350.9c1.4,0.3,3.2-0.2,3.1,2.4c-0.1,2.8-2.2,1.6-3.4,2c-1.4-0.7-3.9,0.8-4-2.1c-0.1-2.6,1.9-2,3.3-2.3
		C260.4,350.9,260.7,350.9,261,350.9z"/>
	<path fill="#151515" d="M454,350.9c1.6,0.1,3.2,0.3,4.9,0.4c0,1.2,0,2.4,0.1,3.6c-2.7,0.2-5.6,1.5-8.1-0.9
		C450.8,351.8,451.8,350.7,454,350.9z"/>
	<path fill="#0E1011" d="M284.2,354.8c-0.9-4.3,2.4-3.6,4.8-4c0.3,0.2,0.5,0.2,0.8,0.1c0.9,0.2,1.8,0.2,2.3,1.1
		c-0.1,1.5-0.1,3.2-2.2,3.5C288,355.3,286.1,355,284.2,354.8z"/>
	<path fill="#151514" d="M277.8,351.1c0.1,1.3,0.1,2.6,0.2,3.9c-2.6,0.5-5.2,1.3-7.8-0.1c-0.5-2.9,0.8-4.3,3.8-4
		C275.3,350.9,276.6,351,277.8,351.1z"/>
	<path fill="#090909" d="M359,350.9c0.6,0,1.3,0.1,1.9,0.1c0.8,1.6,1.3,3.6-0.6,4.2c-1.9,0.7-4.3,0.9-6.2-0.3c-1.6-1-0.9-2.6,0-3.9
		c0,0,0,0,0,0C355.7,351,357.4,351,359,350.9z"/>
	<path fill="#24ADB1" d="M370.1,399c13.3-13.2,26.7-26.4,40.1-39.6c1.4-1.3,2.4-3.3,4.8-3.2c-0.8,1.8-1.9,3.4-3.4,4.9
		c-12.2,12.2-24.4,24.4-36.6,36.6c-1.4,1.4-3,2.6-4.8,3.4C370.2,400.3,370.2,399.6,370.1,399z"/>
	<path fill="#0071BB" d="M290.2,434c0-5,0-10,0-15c0.7-1.7,1.8-3.1,3.1-4.5c14-14,28-28,42.1-42c1.1-1.1,2.1-2.2,3.6-2.6
		c1.1-0.3,1.5,0.3,1.6,1.3c0,4.2,0,8.4,0,12.6c0,2.5-1.8,3.8-3.3,5.3c-13.9,13.9-27.8,27.8-41.7,41.7
		C294,432.2,292.8,434.3,290.2,434z"/>
	<path fill="#0071BB" d="M334,355.1c1.3-1.1,2.7-2.2,4.1-3.4c1.7,0.5,0.3,2.8,1.9,3.3c0,0,0.1,0.3,0.1,0.3c1.9,2.7,1.1,5.7,0.9,8.7
		c-0.6,2-2.1,3.3-3.5,4.7c-14,14-28,28.1-42.1,42c-1.5,1.4-2.6,3.6-5.2,3.3c0-5,0-10,0-15c0.7-1.7,1.8-3.1,3.1-4.4
		c12.3-12.2,24.5-24.5,36.7-36.7C331.2,356.7,332.2,355.3,334,355.1z"/>
	<path fill="#046EB4" d="M290.2,434c13.8-13.7,27.6-27.4,41.4-41c2.7-2.7,5.5-5.3,8.3-7.9c0.9,1.7,1.1,3.3,0,5
		c-15,14.9-29.9,29.7-44.9,44.6c-1.5,1.5-3.2,2.9-4.7,4.4C290.2,437.3,290.2,435.6,290.2,434z"/>
	<path fill="#046EB4" d="M290.2,414c13.8-13.7,27.6-27.4,41.4-41c2.7-2.7,5.5-5.3,8.3-7.9c1.6,1.7,0.9,3.3,0,5
		c-15.1,15-30.2,30-45.3,44.9c-1.4,1.4-2.9,2.7-4.4,4C290.2,417.3,290.2,415.6,290.2,414z"/>
	<path fill="#046EB4" d="M334,355.1c-14.3,15-28.9,29.6-43.9,43.9c0-1.7,0-3.3,0-5c12-11.8,23.9-23.7,35.9-35.5
		c1.5-1.5,1.2-2.4-0.1-3.5c2.6-1.8,5.2-1.9,7.8-0.2L334,355.1z"/>
	<path fill="#046EB4" d="M319.9,354.8c-11.8,2.2-16.7,13.1-25,19.8c-1.7,1.4-3.2,2.9-4.8,4.4c0-1.7,0-3.3,0-5c7.2-7,14.5-14,21.7-21
		C314.5,353.7,317.5,353.2,319.9,354.8z"/>
	<path fill="#046DB4" d="M339.9,405c0,1.7,0,3.3,0,5c-10.8,10.7-21.6,21.3-32.4,32c-0.9,0.8-1.5,1.8-1.5,3c-2.7-0.5-5.3-0.5-8,0
		c2.9-1.6,5.2-3.8,7.6-6.2C317,427.6,328.4,416.3,339.9,405z"/>
	<path fill="#080301" d="M249.9,351.1c0.9,3.3-0.4,4.3-3.7,4.2c-3.4,0-3.9-1.5-3.1-4.3C245.3,351,247.6,351.1,249.9,351.1z"/>
	<path fill="#080402" d="M215.1,351.1c1.3-0.1,2.6-0.1,3.9-0.2c1,0.1,1.9,0.1,2.9,0.2c0.8,2.7,0.3,4.2-3.1,4.2
		C215.5,355.3,214.2,354.3,215.1,351.1z"/>
	<path fill="#0A0604" d="M234,350.9c0.6,0.1,1.3,0.1,1.9,0.2c1,3.3-0.3,4.3-3.7,4.3c-3.5,0-3.9-1.6-3.1-4.3
		C230.7,351,232.4,350.9,234,350.9z"/>
	<path fill="#00080E" d="M297.9,352c0.4-0.4,0.7-0.7,1.1-1.1c0.7,0,1.4,0,2,0.1c1.7,0.5,4.3-1.3,4.9,1.8c0.3,1.7-0.7,2.5-2.3,2.4
		C301.2,355,297.8,356.5,297.9,352z"/>
	<path fill="#020B10" d="M319.9,354.8c-2.8-0.3-6.2,2.5-8.1-1.8c0.1-1.3,0.8-2,2.1-2.1c1.7,0,3.3,0,5,0.1
		C320.3,352,319.7,353.5,319.9,354.8z"/>
	<path fill="#01090E" d="M333.8,354.8c-2.6,0.6-5.2,0.5-7.8,0.2c-0.2-7.2,5-2.9,7.8-3.6C333.8,352.5,333.8,353.7,333.8,354.8z"/>
</g>
<path fill="none" d="M546.8,515.9c1.1-5.4,9.6-7.3,12.9-2.8c0.1-2.9,0.1-5.9,0.2-8.8c0.1,6.1-3.5,12.2-9,15
	c-0.6-2.9,0.4-6.1,2.4-8.3c1.5,0.2,1.1,2.6,0,3.5s-2.9,1.2-3.6,2.5c0.7,0.9,1.9,1.4,3.1,1.1c-1.5,0.2-2.9-1.4-2.5-2.9
	c1.2-0.1,2.4-0.2,3.6-0.3c-2.7,0.2-5.5,0.4-8.2,0.6c3.7,3.8,9,6,14.2,6.1c-1.9,0.5-3.9,1.1-5.7,0.4c-1.8-0.7-3-3.1-1.8-4.6"/>
</svg>
