<?xml version="1.0" encoding="utf-8"?>
<!-- Generator: Adobe Illustrator 18.0.0, SVG Export Plug-In . SVG Version: 6.00 Build 0)  -->
<!DOCTYPE svg PUBLIC "-//W3C//DTD SVG 1.1//EN" "http://www.w3.org/Graphics/SVG/1.1/DTD/svg11.dtd">
<svg version="1.1" id="Layer_1" xmlns="http://www.w3.org/2000/svg" xmlns:xlink="http://www.w3.org/1999/xlink" x="0px" y="0px"
	 viewBox="0 0 21.4 8.6" enable-background="new 0 0 21.4 8.6" xml:space="preserve">
<text transform="matrix(1.1883 0 0 1 11.755 5.1493)" fill="#63454D" font-family="'MyriadPro-Regular'" font-size="3.2783">Socos</text>
<ellipse fill="#936777" cx="4.8" cy="1.2" rx="0.8" ry="0.6"/>
<ellipse fill="#6F936F" cx="8.2" cy="2.2" rx="0.7" ry="0.6"/>
<ellipse fill="#F8BC24" cx="5.7" cy="3.9" rx="1.1" ry="0.9"/>
<ellipse fill="#48CD52" cx="10.5" cy="4.7" rx="0.7" ry="0.6"/>
<ellipse fill="#63454D" cx="7.3" cy="6" rx="0.7" ry="0.6"/>
<path fill="#775F82" d="M5.2,7.1c0.1,0.4-0.3,0.7-0.7,0.7S3.6,7.7,3.6,7.3C3.5,6.9,3.8,6.6,4.3,6.6C4.7,6.5,5.1,6.8,5.2,7.1z"/>
<ellipse fill="#256625" cx="1.3" cy="4.9" rx="0.8" ry="0.7"/>
<polygon fill="#7A767E" points="5.4,3 5.4,3.1 4.9,1.8 5,1.8 "/>
<polygon fill="#7A767E" points="4.6,4.1 4.7,4.2 2.1,4.8 2,4.7 "/>
<polygon fill="#7A767E" points="4.6,6.6 4.6,6.6 5.3,4.7 5.3,4.7 "/>
<polygon fill="#7A767E" points="7,5.5 7,5.5 6.3,4.6 6.3,4.6 "/>
<polygon fill="#7A767E" points="9.7,4.5 9.7,4.6 6.7,4.1 6.7,4 "/>
<polygon fill="#7A767E" points="7.6,2.6 7.6,2.6 6.5,3.4 6.5,3.3 "/>
</svg>
