<?xml version="1.0" encoding="utf-8"?>
<!-- Generator: Adobe Illustrator 18.1.0, SVG Export Plug-In . SVG Version: 6.00 Build 0)  -->
<svg version="1.1" id="Layer_1" xmlns="http://www.w3.org/2000/svg" xmlns:xlink="http://www.w3.org/1999/xlink" x="0px" y="0px"
	 viewBox="0 260.1 321 273" enable-background="new 0 260.1 321 273" xml:space="preserve">
<ellipse fill="#F57E1D" cx="129.3" cy="295.5" rx="21.4" ry="20.9"/>
<ellipse fill="#7A767E" cx="225.7" cy="329.3" rx="21.2" ry="20.9"/>
<ellipse fill="#F8BC24" cx="154.9" cy="386" rx="30.3" ry="29.4"/>
<ellipse fill="#48CD52" cx="290.1" cy="413.8" rx="21.2" ry="20.9"/>
<ellipse fill="#F01344" cx="202.2" cy="456.5" rx="19.7" ry="19.3"/>
<ellipse fill="#9A66AF" cx="118.3" cy="500.3" rx="22.6" ry="22.3"/>
<ellipse fill="#4BB6F3" cx="31" cy="421.7" rx="22.3" ry="22.3"/>
<polygon fill="#7A767E" points="134.2,315.7 135.9,315.2 148.4,357.3 146.7,357.8 "/>
<polygon fill="#7A767E" points="52.9,417 52.4,415.4 126,394.5 126.5,396.1 "/>
<polygon fill="#7A767E" points="144.4,413.8 145.8,414 126.3,479.3 124.8,478.9 "/>
<polygon fill="#7A767E" points="171.6,410.7 172.8,409.8 192.8,439.6 191.4,440.3 "/>
<polygon fill="#7A767E" points="184.6,393.1 184.8,391.4 270.1,407.4 269.9,409 "/>
<polygon fill="#7A767E" points="179.4,368.6 178,367.2 209,342.3 210.2,343.7 "/>
</svg>
