<?xml version="1.0" encoding="utf-8"?>
<!-- Generator: Adobe Illustrator 18.0.0, SVG Export Plug-In . SVG Version: 6.00 Build 0)  -->
<!DOCTYPE svg PUBLIC "-//W3C//DTD SVG 1.1//EN" "http://www.w3.org/Graphics/SVG/1.1/DTD/svg11.dtd">
<svg version="1.1" id="Layer_1" xmlns="http://www.w3.org/2000/svg" xmlns:xlink="http://www.w3.org/1999/xlink" x="0px" y="0px"
	 viewBox="0 0 114.7 47.9" enable-background="new 0 0 114.7 47.9" xml:space="preserve">
<text transform="matrix(1.0776 0 0 1 61.4694 29.3499)" fill="#F01344" font-family="'MyriadPro-Regular'" font-size="18.5221">Socos</text>
<ellipse fill="#F57E1D" cx="25.7" cy="7.2" rx="3.9" ry="3.5"/>
<ellipse fill="#7A767E" cx="43.1" cy="12.8" rx="3.9" ry="3.5"/>
<ellipse fill="#F8BC24" cx="30.3" cy="22.2" rx="5.5" ry="4.9"/>
<ellipse fill="#48CD52" cx="54.8" cy="26.8" rx="3.9" ry="3.5"/>
<ellipse fill="#F01344" cx="38.9" cy="33.9" rx="3.6" ry="3.2"/>
<ellipse fill="#9A66AF" cx="23.6" cy="41.1" rx="4.1" ry="3.7"/>
<ellipse fill="#4BB6F3" cx="7.8" cy="28.1" rx="4.1" ry="3.7"/>
<polygon fill="#7A767E" points="26.6,10.6 26.9,10.5 29.1,17.5 28.8,17.5 "/>
<polygon fill="#7A767E" points="11.8,27.3 11.7,27 25,23.6 25.1,23.8 "/>
<polygon fill="#7A767E" points="28.4,26.8 28.6,26.8 25.1,37.6 24.8,37.5 "/>
<polygon fill="#7A767E" points="33.3,26.2 33.5,26.1 37.2,31 36.9,31.2 "/>
<polygon fill="#7A767E" points="35.7,23.3 35.7,23.1 51.2,25.7 51.2,26 "/>
<polygon fill="#7A767E" points="34.7,19.3 34.5,19.1 40.1,14.9 40.3,15.2 "/>
</svg>
