<?xml version="1.0" encoding="utf-8"?>
<!-- Generator: Adobe Illustrator 18.1.0, SVG Export Plug-In . SVG Version: 6.00 Build 0)  -->
<svg version="1.1" id="Layer_1" xmlns="http://www.w3.org/2000/svg" xmlns:xlink="http://www.w3.org/1999/xlink" x="0px" y="0px"
	 viewBox="0 504 612 288" enable-background="new 0 504 612 288" xml:space="preserve">
<text transform="matrix(0.9809 0 0 1 326.6074 675.8701)" fill="#F01344" font-family="'MyriadPro-Regular'" font-size="112.0484">Socos</text>
<ellipse fill="#F57E1D" cx="129.3" cy="542" rx="21.4" ry="20.9"/>
<ellipse fill="#7A767E" cx="225.7" cy="575.8" rx="21.2" ry="20.9"/>
<ellipse fill="#F8BC24" cx="154.9" cy="632.5" rx="30.3" ry="29.4"/>
<ellipse fill="#48CD52" cx="290.1" cy="660.3" rx="21.2" ry="20.9"/>
<ellipse fill="#F01344" cx="202.2" cy="703" rx="19.7" ry="19.3"/>
<ellipse fill="#9A66AF" cx="118.3" cy="746.8" rx="22.6" ry="22.3"/>
<ellipse fill="#4BB6F3" cx="31" cy="668.2" rx="22.3" ry="22.3"/>
<polygon fill="#7A767E" points="134.2,562.2 135.9,561.7 148.4,603.8 146.7,604.3 "/>
<polygon fill="#7A767E" points="52.9,663.5 52.4,661.9 126,641 126.5,642.6 "/>
<polygon fill="#7A767E" points="144.4,660.3 145.8,660.5 126.3,725.8 124.8,725.4 "/>
<polygon fill="#7A767E" points="171.6,657.2 172.8,656.3 192.8,686.1 191.4,686.8 "/>
<polygon fill="#7A767E" points="184.6,639.6 184.8,637.9 270.1,653.9 269.9,655.5 "/>
<polygon fill="#7A767E" points="179.4,615.1 178,613.7 209,588.8 210.2,590.2 "/>
</svg>
