<?xml version="1.0" encoding="utf-8"?>
<!-- Generator: Adobe Illustrator 18.1.0, SVG Export Plug-In . SVG Version: 6.00 Build 0)  -->
<svg version="1.1" id="Layer_1" xmlns="http://www.w3.org/2000/svg" xmlns:xlink="http://www.w3.org/1999/xlink" x="0px" y="0px"
	 viewBox="0 67 612 396" enable-background="new 0 67 612 396" xml:space="preserve">
<text transform="matrix(0.9809 0 0 1 330.5537 293.7701)" fill="#F01344" font-family="'MyriadPro-Regular'" font-size="112.0484">Socos</text>
<ellipse fill="#F57E1D" cx="133.2" cy="159.9" rx="21.4" ry="20.9"/>
<ellipse fill="#7A767E" cx="229.6" cy="193.7" rx="21.2" ry="20.9"/>
<ellipse fill="#F8BC24" cx="158.8" cy="250.4" rx="30.3" ry="29.4"/>
<ellipse fill="#48CD52" cx="294" cy="278.2" rx="21.2" ry="20.9"/>
<ellipse fill="#F01344" cx="206.1" cy="320.9" rx="19.7" ry="19.3"/>
<ellipse fill="#9A66AF" cx="122.2" cy="364.7" rx="22.6" ry="22.3"/>
<ellipse fill="#4BB6F3" cx="34.9" cy="286.1" rx="22.3" ry="22.3"/>
<polygon fill="#7A767E" points="138.1,180.1 139.8,179.6 152.3,221.7 150.6,222.2 "/>
<polygon fill="#7A767E" points="56.8,281.4 56.3,279.8 129.9,258.9 130.4,260.5 "/>
<polygon fill="#7A767E" points="148.3,278.2 149.7,278.4 130.2,343.7 128.7,343.3 "/>
<polygon fill="#7A767E" points="175.5,275.1 176.7,274.2 196.7,304 195.3,304.7 "/>
<polygon fill="#7A767E" points="188.5,257.5 188.7,255.8 274,271.8 273.8,273.4 "/>
<polygon fill="#7A767E" points="183.3,233 181.9,231.6 212.9,206.7 214.1,208.1 "/>
</svg>
