<?xml version="1.0" encoding="utf-8"?>
<!-- Generator: Adobe Illustrator 18.0.0, SVG Export Plug-In . SVG Version: 6.00 Build 0)  -->
<!DOCTYPE svg PUBLIC "-//W3C//DTD SVG 1.1//EN" "http://www.w3.org/Graphics/SVG/1.1/DTD/svg11.dtd">
<svg version="1.1" id="Layer_1" xmlns="http://www.w3.org/2000/svg" xmlns:xlink="http://www.w3.org/1999/xlink" x="0px" y="0px"
	 viewBox="0 0 152.7 57.3" enable-background="new 0 0 152.7 57.3" xml:space="preserve">
<text transform="matrix(1.2184 0 0 1 82.8996 34.2918)" fill="#F01344" font-family="'MyriadPro-Regular'" font-size="21.5169">Socos</text>
<ellipse fill="#F57E1D" cx="35.9" cy="8.6" rx="5.1" ry="4"/>
<ellipse fill="#7A767E" cx="58.8" cy="15.1" rx="5.1" ry="4"/>
<ellipse fill="#F8BC24" cx="41.9" cy="26" rx="7.2" ry="5.7"/>
<ellipse fill="#48CD52" cx="74.2" cy="31.3" rx="5.1" ry="4"/>
<ellipse fill="#F01344" cx="53.2" cy="39.5" rx="4.7" ry="3.7"/>
<ellipse fill="#9A66AF" cx="33.2" cy="47.9" rx="5.4" ry="4.3"/>
<ellipse fill="#4BB6F3" cx="12.4" cy="32.8" rx="5.3" ry="4.3"/>
<polygon fill="#7A767E" points="37,12.5 37.4,12.4 40.4,20.5 40,20.6 "/>
<polygon fill="#7A767E" points="17.6,31.9 17.5,31.6 35,27.6 35.1,27.9 "/>
<polygon fill="#7A767E" points="39.4,31.3 39.7,31.4 35.1,43.9 34.8,43.8 "/>
<polygon fill="#7A767E" points="45.9,30.7 46.2,30.5 51,36.3 50.7,36.4 "/>
<polygon fill="#7A767E" points="49,27.3 49.1,27 69.4,30.1 69.4,30.4 "/>
<polygon fill="#7A767E" points="47.8,22.6 47.5,22.3 54.8,17.6 55.1,17.9 "/>
</svg>
