<?xml version="1.0" encoding="utf-8"?>
<!-- Generator: Adobe Illustrator 18.1.0, SVG Export Plug-In . SVG Version: 6.00 Build 0)  -->
<svg version="1.1" id="Layer_1" xmlns="http://www.w3.org/2000/svg" xmlns:xlink="http://www.w3.org/1999/xlink" x="0px" y="0px"
	 viewBox="0 0 612 792" enable-background="new 0 0 612 792" xml:space="preserve">
<text transform="matrix(1.0971 0 0 1 20.6992 684.3)" fill="#F01344" font-family="'MyriadPro-Regular'" font-size="211.2558">Socos</text>
<ellipse fill="#F57E1D" cx="248.1" cy="67.1" rx="40.3" ry="39.4"/>
<ellipse fill="#7A767E" cx="429.8" cy="130.9" rx="40" ry="39.4"/>
<ellipse fill="#F8BC24" cx="296.3" cy="237.8" rx="57.1" ry="55.4"/>
<ellipse fill="#48CD52" cx="551.3" cy="290.2" rx="40" ry="39.4"/>
<ellipse fill="#F01344" cx="385.5" cy="370.7" rx="37.1" ry="36.4"/>
<ellipse fill="#9A66AF" cx="227.3" cy="453.3" rx="42.6" ry="42"/>
<ellipse fill="#4BB6F3" cx="62.7" cy="305.1" rx="42" ry="42"/>
<polygon fill="#7A767E" points="257.3,105.2 260.5,104.3 284.1,183.7 280.9,184.6 "/>
<polygon fill="#7A767E" points="104,296.2 103.1,293.2 241.9,253.8 242.8,256.8 "/>
<polygon fill="#7A767E" points="276.6,290.2 279.2,290.6 242.4,413.7 239.6,412.9 "/>
<polygon fill="#7A767E" points="327.8,284.3 330.1,282.6 367.8,338.8 365.2,340.1 "/>
<polygon fill="#7A767E" points="352.3,251.2 352.7,248 513.5,278.1 513.2,281.1 "/>
<polygon fill="#7A767E" points="342.5,205 339.9,202.3 398.3,155.4 400.6,158 "/>
</svg>
