<?xml version="1.0" encoding="utf-8"?>
<!-- Generator: Adobe Illustrator 18.0.0, SVG Export Plug-In . SVG Version: 6.00 Build 0)  -->
<!DOCTYPE svg PUBLIC "-//W3C//DTD SVG 1.1//EN" "http://www.w3.org/Graphics/SVG/1.1/DTD/svg11.dtd">
<svg version="1.1" id="Layer_1" xmlns="http://www.w3.org/2000/svg" xmlns:xlink="http://www.w3.org/1999/xlink" x="0px" y="0px"
	 viewBox="0 0 260.3 115.3" enable-background="new 0 0 260.3 115.3" xml:space="preserve">
<text transform="matrix(0.9809 0 0 1 138.9144 71.843)" fill="#F01344" font-family="'MyriadPro-Regular'" font-size="47.6572">Socos</text>
<ellipse fill="#F57E1D" cx="55" cy="14.9" rx="9.1" ry="8.9"/>
<ellipse fill="#7A767E" cx="96" cy="29.3" rx="9" ry="8.9"/>
<ellipse fill="#F8BC24" cx="65.9" cy="53.4" rx="12.9" ry="12.5"/>
<ellipse fill="#48CD52" cx="123.4" cy="65.2" rx="9" ry="8.9"/>
<ellipse fill="#F01344" cx="86" cy="83.4" rx="8.4" ry="8.2"/>
<ellipse fill="#9A66AF" cx="50.3" cy="102" rx="9.6" ry="9.5"/>
<ellipse fill="#4BB6F3" cx="13.2" cy="68.6" rx="9.5" ry="9.5"/>
<polygon fill="#7A767E" points="57.1,23.5 57.8,23.3 63.1,41.2 62.4,41.4 "/>
<polygon fill="#7A767E" points="22.5,66.6 22.3,65.9 53.6,57 53.8,57.7 "/>
<polygon fill="#7A767E" points="61.4,65.2 62,65.3 53.7,93.1 53.1,92.9 "/>
<polygon fill="#7A767E" points="73,63.9 73.5,63.5 82,76.2 81.4,76.5 "/>
<polygon fill="#7A767E" points="78.5,56.4 78.6,55.7 114.9,62.5 114.8,63.2 "/>
<polygon fill="#7A767E" points="76.3,46 75.7,45.4 88.9,34.8 89.4,35.4 "/>
</svg>
