<?xml version="1.0" encoding="utf-8"?>
<!-- Generator: Adobe Illustrator 18.0.0, SVG Export Plug-In . SVG Version: 6.00 Build 0)  -->
<!DOCTYPE svg PUBLIC "-//W3C//DTD SVG 1.1//EN" "http://www.w3.org/Graphics/SVG/1.1/DTD/svg11.dtd">
<svg version="1.1" id="Layer_1" xmlns="http://www.w3.org/2000/svg" xmlns:xlink="http://www.w3.org/1999/xlink" x="0px" y="0px"
	 viewBox="0 0 75.3 37.3" enable-background="new 0 0 75.3 37.3" xml:space="preserve">
<text transform="matrix(0.9466 0 0 1 41.9254 23.02)" fill="#F01344" font-family="'MyriadPro-Regular'" font-size="13.9453">Socos</text>
<ellipse fill="#F57E1D" cx="18.2" cy="6.3" rx="2.6" ry="2.6"/>
<ellipse fill="#7A767E" cx="29.8" cy="10.6" rx="2.5" ry="2.6"/>
<ellipse fill="#F8BC24" cx="21.3" cy="17.6" rx="3.6" ry="3.7"/>
<ellipse fill="#48CD52" cx="37.5" cy="21.1" rx="2.5" ry="2.6"/>
<ellipse fill="#F01344" cx="27" cy="26.4" rx="2.4" ry="2.4"/>
<ellipse fill="#9A66AF" cx="16.9" cy="31.8" rx="2.7" ry="2.8"/>
<ellipse fill="#4BB6F3" cx="6.4" cy="22.1" rx="2.7" ry="2.8"/>
<polygon fill="#7A767E" points="18.8,8.9 19,8.8 20.5,14.1 20.3,14.1 "/>
<polygon fill="#7A767E" points="9.1,21.5 9,21.3 17.8,18.7 17.9,18.9 "/>
<rect x="18.9" y="20.9" transform="matrix(-0.9572 -0.2896 0.2896 -0.9572 29.7923 54.7079)" fill="#7A767E" width="0.2" height="8.4"/>
<polygon fill="#7A767E" points="23.3,20.7 23.5,20.6 25.8,24.3 25.7,24.4 "/>
<rect x="29.9" y="14.2" transform="matrix(-0.1823 0.9832 -0.9832 -0.1823 54.5338 -6.5801)" fill="#7A767E" width="0.2" height="10.4"/>
<polygon fill="#7A767E" points="24.2,15.5 24.1,15.3 27.8,12.2 27.9,12.4 "/>
</svg>
