<?xml version="1.0" encoding="utf-8"?>
<!-- Generator: Adobe Illustrator 18.0.0, SVG Export Plug-In . SVG Version: 6.00 Build 0)  -->
<!DOCTYPE svg PUBLIC "-//W3C//DTD SVG 1.1//EN" "http://www.w3.org/Graphics/SVG/1.1/DTD/svg11.dtd">
<svg version="1.1" id="Layer_1" xmlns="http://www.w3.org/2000/svg" xmlns:xlink="http://www.w3.org/1999/xlink" x="0px" y="0px"
	 viewBox="0 0 214.7 83.4" enable-background="new 0 0 214.7 83.4" xml:space="preserve">
<text transform="matrix(1.1403 0 0 1 113.9417 52.1557)" fill="#F01344" font-family="'MyriadPro-Regular'" font-size="33.4216">Socos</text>
<ellipse fill="#F57E1D" cx="45.6" cy="12.2" rx="7.5" ry="6.3"/>
<ellipse fill="#7A767E" cx="78.9" cy="22.3" rx="7.4" ry="6.3"/>
<ellipse fill="#F8BC24" cx="54.4" cy="39.2" rx="10.5" ry="8.8"/>
<ellipse fill="#48CD52" cx="101.3" cy="47.5" rx="7.4" ry="6.3"/>
<ellipse fill="#F01344" cx="70.8" cy="60.3" rx="6.9" ry="5.7"/>
<ellipse fill="#9A66AF" cx="41.7" cy="73.3" rx="7.8" ry="6.7"/>
<ellipse fill="#4BB6F3" cx="11.5" cy="49.9" rx="7.7" ry="6.7"/>
<polygon fill="#7A767E" points="47.3,18.3 47.8,18.1 52.2,30.7 51.6,30.8 "/>
<polygon fill="#7A767E" points="19,48.5 18.9,48 44.4,41.7 44.5,42.2 "/>
<polygon fill="#7A767E" points="50.7,47.5 51.2,47.6 44.5,67.1 44,66.9 "/>
<polygon fill="#7A767E" points="60.2,46.6 60.6,46.3 67.5,55.2 67.1,55.5 "/>
<polygon fill="#7A767E" points="64.7,41.3 64.8,40.8 94.4,45.6 94.3,46.1 "/>
<polygon fill="#7A767E" points="62.9,34 62.4,33.6 73.1,26.2 73.6,26.6 "/>
</svg>
